<svg id="svg" xmlns="http://www.w3.org/2000/svg" xmlns:xlink="http://www.w3.org/1999/xlink" width="400" height="155.39143279172822" viewBox="0, 0, 400,155.39143279172822"><g id="svgg"><path id="path0" d="M149.258 2.363 C 147.463 5.075,146.943 5.341,147.459 3.283 C 147.659 2.489,147.630 1.530,147.396 1.151 C 146.814 0.210,144.215 3.437,144.187 5.135 C 144.162 6.629,143.254 7.415,142.661 6.455 C 142.248 5.788,137.666 9.778,137.666 10.805 C 137.666 11.447,133.138 16.397,126.464 23.051 C 122.000 27.500,108.540 37.879,98.375 44.710 C 93.151 48.220,81.802 54.078,77.400 55.537 C 75.288 56.237,72.449 57.454,71.091 58.242 C 69.734 59.030,68.012 59.675,67.267 59.675 C 66.521 59.675,63.112 60.593,59.691 61.716 C 56.270 62.838,42.038 66.726,28.065 70.357 C 5.125 76.316,-0.374 77.838,0.618 77.954 C 11.399 79.206,78.230 99.519,81.598 102.567 C 82.130 103.049,84.793 104.379,87.516 105.523 C 90.239 106.668,94.195 108.694,96.307 110.027 C 105.359 115.738,109.074 118.172,110.044 119.029 C 110.613 119.530,111.356 119.941,111.694 119.941 C 112.547 119.941,118.378 124.306,119.744 125.966 C 121.035 127.536,123.069 128.843,127.574 130.996 C 130.561 132.424,139.598 141.001,143.257 145.882 C 145.632 149.050,151.231 153.619,152.739 153.619 C 155.561 153.619,154.274 149.831,151.064 148.688 C 149.249 148.042,150.137 146.269,152.444 145.933 C 154.072 145.696,154.464 145.396,154.309 144.504 C 154.123 143.435,154.190 143.426,155.575 144.333 C 157.195 145.395,160.709 144.612,160.709 143.189 C 160.709 142.795,161.241 142.304,161.891 142.097 C 163.667 141.534,163.329 140.776,160.709 139.439 C 159.026 138.580,158.343 137.854,158.338 136.916 C 158.333 136.191,158.169 135.000,157.973 134.269 C 157.757 133.460,157.880 132.939,158.289 132.939 C 158.659 132.939,159.235 133.538,159.568 134.269 C 159.934 135.072,160.747 135.632,161.623 135.683 C 163.185 135.775,163.450 135.325,162.433 134.309 C 161.836 133.712,161.935 133.373,163.500 130.641 C 163.573 130.514,164.703 131.378,166.013 132.561 C 167.322 133.744,168.614 134.712,168.884 134.712 C 171.045 134.712,169.402 131.615,165.494 128.319 C 163.451 126.597,162.482 125.333,162.482 124.395 C 162.482 123.385,161.997 122.842,160.689 122.386 C 158.610 121.661,154.717 118.537,150.651 114.328 C 149.081 112.703,146.780 110.851,145.538 110.211 C 141.343 108.053,136.527 104.569,134.876 102.500 C 133.974 101.369,133.011 100.443,132.738 100.443 C 131.725 100.443,125.258 95.516,125.258 94.745 C 125.258 93.745,125.179 93.748,123.110 94.826 C 120.458 96.210,119.941 95.972,119.941 93.368 C 119.941 91.090,119.987 91.036,121.457 91.595 C 122.427 91.964,123.353 91.968,124.030 91.606 C 125.133 91.015,132.756 91.228,135.681 91.932 C 136.611 92.155,137.169 92.120,136.922 91.855 C 136.386 91.279,138.740 88.626,139.788 88.626 C 140.192 88.626,141.037 89.333,141.666 90.197 C 142.972 91.990,157.669 92.853,162.777 91.436 C 164.077 91.076,165.406 90.866,165.731 90.970 C 166.056 91.074,169.551 91.102,173.498 91.030 C 178.113 90.947,180.813 91.128,181.066 91.536 C 181.662 92.502,186.560 92.294,188.176 91.235 C 189.716 90.226,191.787 90.315,203.284 91.877 C 206.835 92.360,209.905 92.463,211.555 92.155 C 213.538 91.785,214.515 91.882,215.549 92.549 C 216.685 93.281,217.077 93.300,217.851 92.657 C 218.936 91.757,224.350 91.418,224.845 92.219 C 225.029 92.518,226.029 92.759,227.066 92.756 C 229.939 92.746,233.392 92.074,233.089 91.584 C 232.941 91.344,233.943 91.347,235.317 91.590 C 241.501 92.686,259.054 92.823,268.242 91.846 C 277.799 90.830,306.216 90.867,308.670 91.899 C 309.583 92.283,309.732 92.182,309.427 91.388 C 308.967 90.190,310.476 90.060,312.960 91.085 C 315.406 92.093,340.916 92.141,340.916 91.137 C 340.916 90.232,341.527 90.210,343.684 91.035 C 344.899 91.500,346.268 91.477,348.766 90.950 C 351.473 90.378,352.517 90.381,353.788 90.961 C 356.477 92.191,378.148 91.257,378.603 89.892 C 378.727 89.521,379.746 89.217,380.868 89.217 C 381.989 89.217,383.542 88.801,384.317 88.293 C 385.505 87.515,386.103 87.482,388.116 88.085 C 390.137 88.691,391.032 88.638,393.923 87.746 C 398.785 86.246,399.243 85.760,397.276 84.191 C 396.193 83.328,395.893 82.770,396.357 82.483 C 397.436 81.816,397.165 80.472,395.869 80.061 C 394.327 79.571,395.702 76.547,397.778 75.861 L 399.114 75.419 397.637 74.992 C 396.824 74.756,394.993 74.537,393.567 74.505 L 390.975 74.446 393.105 72.753 C 395.280 71.025,395.357 70.310,393.367 70.310 C 391.363 70.310,392.896 69.165,396.179 68.211 C 401.898 66.549,401.347 65.360,394.935 65.529 C 391.903 65.610,390.562 65.445,390.822 65.025 C 391.034 64.682,391.701 64.402,392.306 64.402 C 393.818 64.402,395.273 63.791,395.273 63.157 C 395.273 62.867,393.545 62.629,391.433 62.629 C 389.266 62.629,387.592 62.887,387.592 63.220 C 387.592 63.545,387.061 63.811,386.411 63.811 C 385.761 63.811,385.229 63.417,385.229 62.936 C 385.229 61.632,382.697 61.235,377.329 61.697 C 372.412 62.121,322.649 63.100,283.013 63.553 C 270.827 63.692,258.597 63.857,255.835 63.919 C 251.273 64.021,187.464 64.019,182.570 63.916 C 181.433 63.892,167.009 63.834,150.517 63.787 C 134.025 63.741,120.532 63.615,120.532 63.509 C 120.532 63.402,121.840 62.881,123.439 62.349 C 126.674 61.275,128.980 58.742,127.536 57.850 C 126.566 57.249,127.327 56.425,130.724 54.400 C 133.501 52.744,133.571 53.513,130.880 56.121 C 127.639 59.263,128.988 58.961,132.770 55.698 C 134.651 54.077,137.120 52.271,138.257 51.686 C 139.394 51.101,139.993 50.510,139.586 50.373 C 138.293 49.936,138.787 49.081,140.826 48.229 C 141.914 47.775,143.381 46.468,144.087 45.326 C 145.357 43.271,146.795 42.270,147.687 42.821 C 148.634 43.407,159.487 30.482,159.937 28.233 C 160.115 27.343,160.627 26.310,161.076 25.938 C 161.524 25.566,161.891 24.493,161.891 23.553 C 161.891 22.265,162.355 21.561,163.776 20.697 C 165.196 19.834,165.847 18.850,166.409 16.718 C 167.524 12.491,167.469 12.256,165.477 12.694 C 164.091 12.998,163.612 12.825,163.077 11.826 C 162.620 10.972,162.059 10.690,161.297 10.932 C 159.912 11.371,158.130 8.931,158.717 7.400 C 159.276 5.945,157.092 7.130,155.511 9.141 L 154.356 10.608 153.971 8.199 C 153.657 6.236,153.435 5.916,152.769 6.469 C 151.509 7.515,151.064 6.211,151.858 3.805 C 153.214 -0.303,151.611 -1.192,149.258 2.363 M154.872 31.758 C 154.092 33.197,150.742 36.316,150.374 35.947 C 150.006 35.580,154.258 30.724,154.946 30.724 C 155.214 30.724,155.181 31.189,154.872 31.758 M148.006 40.177 C 147.805 40.502,147.242 40.768,146.754 40.768 C 146.267 40.768,146.033 40.502,146.233 40.177 C 146.434 39.852,146.997 39.586,147.485 39.586 C 147.972 39.586,148.207 39.852,148.006 40.177 M143.706 42.672 C 143.002 43.376,142.263 43.790,142.065 43.591 C 141.866 43.392,142.280 42.654,142.984 41.950 C 143.688 41.246,144.426 40.832,144.625 41.031 C 144.824 41.229,144.410 41.968,143.706 42.672 M123.778 70.309 C 125.920 71.123,125.083 72.083,122.231 72.083 C 119.093 72.083,116.738 70.938,118.477 70.259 C 120.139 69.610,121.984 69.627,123.778 70.309 M133.726 70.938 C 135.808 70.970,135.982 71.059,134.852 71.513 C 133.333 72.123,130.151 71.647,129.581 70.724 C 129.343 70.340,129.588 70.258,130.232 70.505 C 130.799 70.723,132.372 70.918,133.726 70.938 M142.511 72.792 C 141.960 73.343,141.645 73.343,141.093 72.792 C 140.542 72.240,140.699 72.083,141.802 72.083 C 142.905 72.083,143.063 72.240,142.511 72.792 M194.978 72.674 C 195.602 73.077,194.774 73.249,192.171 73.255 C 190.097 73.260,188.479 73.005,188.479 72.674 C 188.479 71.917,193.807 71.917,194.978 72.674 M206.060 87.592 C 205.927 87.999,204.924 88.418,203.832 88.524 C 202.083 88.695,201.939 88.607,202.621 87.786 C 203.549 86.667,206.417 86.506,206.060 87.592 M353.028 88.035 C 353.251 88.397,352.403 88.610,350.847 88.585 C 348.883 88.553,348.571 88.427,349.483 88.035 C 351.118 87.333,352.594 87.333,353.028 88.035 M370.753 88.023 L 371.935 88.119 370.753 88.626 C 368.509 89.591,362.776 89.227,362.778 88.120 C 362.778 87.790,367.185 87.737,370.753 88.023 M357.164 89.217 C 357.365 89.542,357.130 89.808,356.643 89.808 C 356.155 89.808,355.592 89.542,355.391 89.217 C 355.191 88.892,355.425 88.626,355.913 88.626 C 356.400 88.626,356.963 88.892,357.164 89.217 M330.576 89.767 L 332.349 90.177 330.576 90.561 C 326.528 91.438,324.100 91.324,323.893 90.248 C 323.678 89.130,326.839 88.903,330.576 89.767 M115.854 112.900 C 116.531 113.577,116.922 114.294,116.723 114.494 C 116.523 114.693,115.643 114.139,114.767 113.263 C 113.890 112.386,113.499 111.669,113.898 111.669 C 114.297 111.669,115.177 112.223,115.854 112.900 M121.325 116.461 C 123.125 117.281,124.520 119.941,123.151 119.941 C 122.133 119.941,119.350 117.365,119.350 116.423 C 119.350 115.647,119.548 115.651,121.325 116.461 M131.799 125.065 C 135.812 128.391,139.406 131.874,140.757 133.746 L 141.980 135.440 140.703 134.756 C 140.000 134.380,139.070 134.150,138.635 134.244 C 137.699 134.448,134.993 131.392,134.152 129.181 C 133.800 128.254,133.106 127.622,132.442 127.622 C 131.792 127.622,130.669 126.632,129.760 125.258 C 127.815 122.319,128.418 122.262,131.799 125.065 M151.256 125.958 C 151.256 126.801,150.081 126.481,148.277 125.147 C 145.730 123.264,146.138 122.600,148.892 124.148 C 150.192 124.878,151.256 125.693,151.256 125.958 M147.690 141.763 C 148.461 143.204,148.469 143.748,147.714 143.281 C 146.765 142.695,145.809 140.620,146.487 140.620 C 146.812 140.620,147.353 141.135,147.690 141.763 " stroke="none" fill="#fff" fill-rule="evenodd"></path></g></svg>