<svg id="svg" 
xmlns="http://www.w3.org/2000/svg" 
xmlns:xlink="http://www.w3.org/1999/xlink"
viewBox="0, 0, 400,400">
<g id="svgg">
<path id="path0" d="M190.625 2.549 C 188.262 3.544,146.828 21.208,98.550 41.803 C 2.676 82.699,5.664 81.228,1.848 89.423 L 0.015 93.359 0.008 200.042 L -0.000 306.724 2.019 310.775 C 6.098 318.962,2.744 317.318,102.062 359.788 L 193.359 398.828 200.000 398.828 L 206.641 398.828 297.902 359.820 C 397.626 317.194,394.313 318.822,398.152 310.577 L 399.985 306.641 399.992 219.688 C 400.001 123.748,400.328 129.904,395.044 126.638 C 389.910 123.465,381.432 125.185,378.701 129.953 C 377.956 131.253,377.645 150.993,377.344 215.982 L 376.953 300.324 295.004 335.318 C 249.931 354.565,212.754 370.313,212.386 370.313 C 212.019 370.313,211.728 327.510,211.740 275.195 L 211.761 180.078 302.332 141.483 C 365.558 114.541,393.487 102.276,394.839 100.858 C 399.940 95.510,399.465 89.287,393.495 83.269 C 389.462 79.203,389.247 79.106,298.047 40.217 C 194.740 -3.835,200.765 -1.722,190.625 2.549 M266.284 52.435 C 302.660 67.954,338.313 83.144,345.514 86.190 C 352.735 89.245,358.165 91.956,357.623 92.237 C 357.083 92.516,321.408 107.774,278.345 126.142 L 200.050 159.540 129.126 129.273 C 88.702 112.022,56.859 98.866,55.078 98.679 C 44.892 97.613,38.603 111.424,46.152 118.283 C 48.103 120.056,67.711 128.755,118.541 150.396 L 188.254 180.078 188.268 275.195 C 188.275 327.510,188.005 370.313,187.668 370.313 C 187.330 370.313,150.153 354.562,105.051 335.312 L 23.047 300.311 23.047 199.987 L 23.047 99.663 97.266 67.984 C 138.086 50.560,177.637 33.618,185.156 30.333 C 192.676 27.049,199.125 24.330,199.488 24.290 C 199.850 24.251,229.909 36.916,266.284 52.435 " 
stroke="none" 
fill="#fff" 
fill-rule="evenodd"></path>
</g>
</svg>
