<svg id="svg" xmlns="http://www.w3.org/2000/svg" xmlns:xlink="http://www.w3.org/1999/xlink"  viewBox="0, 0, 400,400"><g id="svgg"><path id="path0" d="M39.673 42.619 C 24.936 46.192,13.232 57.965,9.358 73.114 C 6.940 82.569,6.940 317.431,9.358 326.886 C 13.236 342.048,25.109 353.900,39.916 357.391 C 47.393 359.153,352.500 359.179,359.969 357.418 C 375.484 353.759,387.678 341.178,391.007 325.391 C 392.463 318.485,392.785 116.885,391.352 108.933 C 388.737 94.411,376.776 80.908,362.669 76.551 C 357.807 75.049,355.238 75.000,281.754 74.990 L 205.859 74.981 201.973 67.373 C 195.313 54.337,185.285 45.740,173.078 42.603 C 166.489 40.910,46.665 40.924,39.673 42.619 M172.266 60.780 C 180.100 64.380,181.817 66.870,196.082 95.313 C 203.301 109.707,210.046 122.263,211.070 123.214 L 212.932 124.944 283.615 125.194 C 337.325 125.384,354.987 125.677,357.170 126.415 C 364.584 128.921,371.384 135.874,373.622 143.236 C 374.392 145.770,374.609 165.717,374.609 233.984 L 374.609 321.484 372.551 325.875 C 369.760 331.826,365.585 336.239,360.282 338.844 L 355.859 341.016 200.000 341.016 L 44.141 341.016 40.488 339.327 C 35.036 336.808,30.225 331.952,27.645 326.365 L 25.391 321.484 25.391 200.000 L 25.391 78.516 27.581 73.828 C 31.060 66.386,36.485 61.617,43.711 59.648 C 46.419 58.911,61.691 58.717,107.813 58.832 L 168.359 58.984 172.266 60.780 M360.631 94.683 C 367.591 98.356,374.219 107.494,374.219 113.420 C 374.219 115.212,374.540 115.270,368.944 112.474 C 359.655 107.832,359.817 107.841,287.872 107.826 L 222.228 107.813 218.536 100.380 C 216.505 96.293,214.844 92.770,214.844 92.552 C 214.844 92.334,246.748 92.251,285.742 92.367 L 356.641 92.578 360.631 94.683 " stroke="none" fill="#9AA6B2" fill-rule="evenodd"></path></g></svg>