 <svg 
            id="svg" 
            version="1.1" 
            xmlns="http://www.w3.org/2000/svg" 
            xmlns:xlink="http://www.w3.org/1999/xlink" 
            class="size-20"
            viewBox="0, 0, 400,400"><g id="svgg"><path id="path0" d="M36.112 59.742 C 34.275 60.315,31.914 61.347,30.866 62.033 C 29.818 62.720,28.231 63.281,27.338 63.281 C 24.678 63.281,18.556 69.765,14.656 76.712 L 11.008 83.212 10.193 107.426 C 8.248 165.199,9.694 320.298,12.236 326.652 C 15.804 335.568,28.335 336.782,156.250 340.603 C 247.374 343.324,331.461 342.030,338.086 337.804 C 343.387 334.423,339.197 330.924,328.285 329.618 C 323.078 328.995,320.372 328.356,320.611 327.804 C 320.814 327.336,323.592 321.152,326.785 314.063 C 348.400 266.068,379.683 175.650,377.380 167.831 C 375.674 162.037,373.166 160.937,361.659 160.938 L 351.563 160.938 351.558 139.258 C 351.553 114.091,351.326 112.766,346.149 107.744 C 340.329 102.096,344.449 102.344,256.490 102.338 L 177.734 102.333 163.281 91.272 C 155.332 85.188,143.379 75.968,136.719 70.782 C 128.843 64.650,123.244 60.879,120.703 59.999 C 115.508 58.198,41.773 57.974,36.112 59.742 M119.770 69.922 C 121.766 71.211,134.922 81.230,149.004 92.188 L 174.609 112.109 255.469 112.299 C 318.599 112.447,336.740 112.704,338.207 113.471 C 341.810 115.355,342.188 117.889,342.188 140.209 L 342.188 160.938 337.500 160.938 C 333.577 160.938,332.804 160.715,332.759 159.570 C 331.677 131.935,331.486 129.588,330.210 128.313 C 328.987 127.090,327.750 127.147,311.131 129.199 C 241.317 137.821,215.128 139.229,168.750 136.853 C 158.652 136.336,132.933 135.393,111.596 134.759 C 90.259 134.124,67.187 133.373,60.324 133.090 L 47.847 132.576 46.671 134.452 C 45.764 135.900,45.379 140.231,44.987 153.411 C 44.187 180.273,41.221 217.906,36.297 263.672 C 35.233 273.555,33.940 285.859,33.423 291.016 C 32.592 299.291,28.383 311.164,26.974 309.204 C 26.596 308.677,28.104 82.176,28.501 79.975 C 29.419 74.886,34.520 69.804,40.620 67.903 C 41.697 67.567,59.130 67.357,79.359 67.435 L 116.141 67.578 119.770 69.922 M344.215 70.508 C 340.809 75.789,336.563 95.626,338.438 97.500 C 339.668 98.731,344.119 98.705,345.146 97.461 C 346.042 96.375,352.344 75.053,352.344 73.108 C 352.344 69.339,346.230 67.383,344.215 70.508 M363.994 92.259 C 354.177 103.827,353.650 105.291,358.220 108.286 C 361.277 110.289,363.615 108.691,371.680 99.086 C 378.993 90.376,379.882 88.439,378.098 85.105 C 375.855 80.915,371.932 82.905,363.994 92.259 M377.142 112.231 C 369.753 115.235,368.529 116.743,370.019 121.008 C 371.839 126.216,390.625 119.884,390.625 114.063 C 390.625 108.835,386.780 108.313,377.142 112.231 M322.663 144.336 C 322.667 148.525,322.892 153.799,323.162 156.055 L 323.655 160.156 287.090 160.156 L 250.525 160.156 240.655 169.922 L 230.786 179.688 156.774 179.688 C 96.380 179.688,82.298 179.882,80.236 180.743 C 76.679 182.229,72.825 186.900,72.257 190.413 C 68.987 210.616,65.292 225.128,58.968 242.593 C 54.846 253.979,45.314 276.043,44.758 275.487 C 44.559 275.288,45.132 268.154,46.032 259.633 C 51.019 212.433,54.675 165.643,54.684 148.923 L 54.688 141.987 65.430 142.480 C 71.338 142.751,90.938 143.335,108.984 143.779 C 127.031 144.222,149.180 144.941,158.203 145.377 C 217.416 148.235,256.172 146.392,314.063 137.967 C 318.145 137.373,321.748 136.849,322.070 136.803 C 322.393 136.757,322.659 140.146,322.663 144.336 M367.815 171.495 C 368.112 171.749,362.976 189.090,357.289 207.031 C 347.635 237.490,330.182 283.662,317.718 311.719 L 312.685 323.047 172.009 323.244 L 31.334 323.442 36.071 315.464 C 57.091 280.064,73.468 238.936,80.421 204.087 C 81.645 197.956,83.078 192.418,83.606 191.782 C 84.442 190.775,94.329 190.625,159.989 190.625 L 235.413 190.625 245.245 180.956 C 250.653 175.638,255.605 171.080,256.250 170.827 C 257.346 170.396,367.300 171.055,367.815 171.495 " stroke="none" fill="#9AA6B2" fill-rule="evenodd"></path></g></svg>
            