
<svg id="svg" version="1.1" xmlns="http://www.w3.org/2000/svg" xmlns:xlink="http://www.w3.org/1999/xlink" width="400" height="335.042735042735" viewBox="0, 0, 400,335.042735042735"><g id="svgg"><path id="path0" d="M144.174 4.324 C 143.898 4.478,142.891 4.691,141.937 4.798 C 140.983 4.904,139.927 5.137,139.590 5.315 C 139.253 5.493,137.997 6.091,136.798 6.643 C 133.169 8.314,128.455 12.668,127.110 15.591 C 123.757 22.879,123.928 21.790,123.799 36.630 L 123.685 49.623 132.573 49.623 L 141.460 49.623 141.562 37.972 C 141.678 24.794,141.640 24.994,144.341 23.136 L 145.799 22.133 200.921 22.127 C 263.048 22.121,257.166 21.842,259.413 24.902 L 260.687 26.637 260.788 38.136 L 260.888 49.634 269.673 49.545 L 278.458 49.455 278.546 38.915 C 278.604 32.116,278.514 28.254,278.295 28.035 C 278.108 27.848,277.955 27.071,277.955 26.309 C 277.955 17.392,268.761 6.570,259.536 4.626 C 257.317 4.159,145.002 3.865,144.174 4.324 M27.661 57.492 C 21.877 58.500,18.172 59.982,14.347 62.818 C 12.372 64.283,8.718 68.226,8.718 68.893 C 8.718 69.025,8.438 69.534,8.097 70.024 C 7.755 70.513,7.211 71.668,6.888 72.590 C 6.564 73.512,6.182 74.568,6.038 74.937 C 4.881 77.903,4.862 78.346,4.862 101.928 C 4.862 120.361,4.955 125.546,5.308 126.739 C 5.554 127.569,5.911 128.852,6.102 129.589 C 7.113 133.498,10.374 140.837,11.523 141.791 C 11.824 142.040,12.070 142.399,12.070 142.588 C 12.070 145.442,24.693 155.524,31.852 158.390 C 33.604 159.091,35.490 159.865,36.044 160.109 C 36.597 160.353,37.955 160.879,39.061 161.278 C 40.168 161.677,41.526 162.198,42.079 162.435 C 42.632 162.673,44.593 163.430,46.438 164.118 C 48.282 164.806,50.430 165.655,51.212 166.004 C 51.993 166.353,52.801 166.639,53.005 166.639 C 53.210 166.639,53.853 166.852,54.434 167.112 C 55.015 167.373,56.396 167.912,57.502 168.311 C 58.609 168.710,59.966 169.231,60.520 169.469 C 61.942 170.079,63.707 170.758,67.561 172.174 C 69.405 172.852,71.389 173.619,71.970 173.878 C 72.551 174.138,73.163 174.350,73.330 174.350 C 73.590 174.350,78.242 176.126,80.302 177.012 C 80.671 177.171,81.500 177.489,82.146 177.720 C 82.791 177.950,83.772 178.328,84.325 178.559 C 84.878 178.790,86.463 179.386,87.846 179.883 C 89.229 180.379,90.813 180.975,91.366 181.206 C 91.920 181.437,92.900 181.815,93.546 182.046 C 94.191 182.276,95.021 182.583,95.390 182.726 C 96.945 183.332,99.125 184.172,99.749 184.404 C 100.117 184.542,100.796 184.821,101.257 185.025 C 101.718 185.228,103.303 185.856,104.778 186.421 C 106.253 186.985,107.762 187.579,108.131 187.739 C 108.500 187.900,109.707 188.366,110.813 188.774 C 112.754 189.489,117.142 191.191,118.525 191.763 C 118.894 191.916,120.327 192.449,121.710 192.948 C 123.093 193.447,125.281 194.266,126.572 194.769 L 128.919 195.684 129.331 202.704 C 129.865 211.808,130.891 218.519,132.429 222.967 C 136.368 234.363,139.726 240.429,147.090 249.455 C 148.973 251.763,156.700 259.272,160.268 262.260 C 162.020 263.727,163.949 265.369,164.554 265.909 C 165.160 266.449,165.783 266.890,165.938 266.890 C 166.094 266.890,166.412 267.120,166.645 267.401 C 167.413 268.327,178.600 276.188,184.285 279.799 C 201.712 290.865,202.526 290.999,212.741 284.511 C 213.663 283.925,214.644 283.336,214.920 283.202 C 215.976 282.689,218.646 280.966,226.320 275.844 C 229.657 273.618,236.775 268.438,238.223 267.183 C 238.835 266.653,240.283 265.448,243.907 262.453 C 246.245 260.520,256.378 250.346,257.546 248.758 C 258.167 247.913,259.515 246.103,260.541 244.734 C 261.567 243.366,262.991 241.266,263.705 240.067 C 264.420 238.868,265.096 237.812,265.207 237.720 C 265.435 237.532,268.231 231.798,268.231 231.520 C 268.231 231.422,268.521 230.703,268.875 229.921 C 270.247 226.895,272.460 219.597,272.815 216.932 C 272.901 216.287,273.062 215.532,273.174 215.256 C 273.285 214.979,273.415 214.429,273.463 214.034 C 273.511 213.639,273.734 212.131,273.958 210.682 C 274.183 209.232,274.457 205.266,274.568 201.868 L 274.769 195.689 276.446 195.044 C 277.368 194.689,278.424 194.274,278.793 194.122 C 279.162 193.970,280.369 193.521,281.475 193.125 C 282.582 192.729,283.940 192.207,284.493 191.965 C 285.046 191.723,289.195 190.132,293.713 188.429 C 298.231 186.726,302.381 185.138,302.934 184.900 C 303.487 184.662,305.826 183.763,308.131 182.903 C 310.436 182.042,312.624 181.212,312.992 181.057 C 313.361 180.903,315.775 179.997,318.357 179.044 C 323.060 177.309,323.388 177.184,325.566 176.278 C 326.211 176.009,327.645 175.452,328.751 175.039 C 332.686 173.572,333.452 173.272,334.027 172.975 C 334.348 172.809,334.777 172.674,334.982 172.674 C 335.188 172.674,335.906 172.432,336.580 172.137 C 337.253 171.841,338.106 171.482,338.474 171.339 C 338.843 171.195,339.824 170.815,340.654 170.495 C 343.120 169.541,343.808 169.259,344.421 168.947 C 344.741 168.784,345.171 168.650,345.376 168.650 C 345.582 168.650,346.225 168.438,346.806 168.179 C 347.387 167.920,348.617 167.442,349.539 167.118 C 350.461 166.793,351.359 166.402,351.534 166.248 C 351.709 166.094,352.126 165.968,352.461 165.968 C 352.795 165.968,353.331 165.819,353.651 165.637 C 353.971 165.454,355.817 164.695,357.754 163.950 C 359.690 163.204,361.576 162.465,361.945 162.307 C 362.313 162.149,364.426 161.298,366.639 160.417 C 374.911 157.122,379.531 154.542,383.068 151.243 C 383.990 150.383,385.046 149.458,385.415 149.189 C 386.346 148.508,390.277 143.968,390.277 143.573 C 390.277 143.396,390.502 143.063,390.778 142.834 C 391.514 142.224,394.162 137.428,395.407 134.451 C 398.464 127.143,398.937 122.356,398.807 100.084 C 398.695 80.889,398.343 76.944,396.350 72.590 C 396.181 72.221,395.740 71.234,395.370 70.396 C 394.788 69.078,392.541 65.903,391.466 64.878 C 390.146 63.621,385.526 60.352,385.068 60.352 C 384.962 60.352,384.242 60.066,383.469 59.716 C 382.695 59.366,381.383 58.896,380.553 58.672 C 379.723 58.447,378.818 58.181,378.541 58.080 C 378.265 57.978,377.510 57.840,376.865 57.772 C 376.220 57.704,374.967 57.502,374.082 57.324 C 371.510 56.805,30.654 56.971,27.661 57.492 M378.060 74.324 C 380.148 75.416,381.317 76.763,382.377 79.299 C 383.177 81.214,383.160 121.943,382.358 125.471 C 381.307 130.091,374.786 139.816,372.739 139.816 C 372.628 139.816,371.675 140.419,370.621 141.157 C 369.568 141.894,368.604 142.498,368.478 142.498 C 368.351 142.498,366.905 143.225,365.264 144.115 C 363.623 145.004,360.771 146.308,358.927 147.012 C 357.083 147.716,355.122 148.484,354.568 148.719 C 354.015 148.954,351.676 149.852,349.371 150.716 C 347.066 151.579,344.705 152.498,344.124 152.756 C 343.543 153.015,342.976 153.227,342.864 153.227 C 342.682 153.227,337.472 155.195,335.792 155.899 C 335.423 156.053,334.216 156.518,333.110 156.932 C 332.003 157.346,330.645 157.868,330.092 158.092 C 329.539 158.317,328.407 158.768,327.578 159.095 C 326.748 159.422,325.429 159.971,324.647 160.314 C 323.866 160.658,323.059 160.939,322.854 160.939 C 322.649 160.939,322.006 161.148,321.425 161.404 C 320.844 161.659,319.464 162.209,318.357 162.626 C 317.251 163.043,315.893 163.571,315.339 163.799 C 314.786 164.027,313.806 164.404,313.160 164.638 C 312.515 164.872,311.459 165.282,310.813 165.550 C 309.601 166.052,309.334 166.158,306.790 167.142 C 305.960 167.462,304.979 167.842,304.610 167.985 C 304.241 168.128,300.847 169.408,297.066 170.831 C 293.286 172.253,289.740 173.605,289.187 173.834 C 288.634 174.062,287.653 174.439,287.008 174.669 C 286.362 174.900,285.532 175.206,285.163 175.350 C 284.795 175.494,283.814 175.874,282.984 176.194 C 282.154 176.515,281.098 176.931,280.637 177.118 C 280.176 177.305,279.497 177.567,279.128 177.702 C 278.759 177.836,277.887 178.193,277.189 178.495 C 274.412 179.697,274.632 180.753,274.499 165.549 C 274.338 147.195,273.794 145.613,266.482 142.241 C 262.993 140.633,261.875 140.168,260.976 139.953 C 260.448 139.826,259.866 139.618,259.681 139.489 C 259.497 139.360,258.441 138.992,257.334 138.671 C 256.228 138.351,254.983 137.949,254.568 137.778 C 254.153 137.608,253.474 137.330,253.060 137.162 C 252.645 136.993,251.475 136.595,250.461 136.278 C 249.447 135.960,248.315 135.581,247.946 135.434 C 247.578 135.288,241.090 133.113,233.529 130.601 C 225.968 128.089,219.480 125.906,219.111 125.752 C 218.743 125.597,217.083 125.048,215.423 124.532 C 213.764 124.016,212.255 123.489,212.070 123.361 C 211.886 123.233,211.207 123.018,210.562 122.883 C 209.916 122.749,209.237 122.530,209.053 122.397 C 208.868 122.264,207.812 121.894,206.706 121.575 C 205.599 121.255,204.347 120.853,203.924 120.681 C 202.041 119.917,192.370 122.019,190.871 123.519 C 190.759 123.630,190.346 123.722,189.953 123.722 C 189.559 123.722,189.094 123.842,188.919 123.989 C 188.744 124.137,187.770 124.527,186.756 124.856 C 185.742 125.186,184.610 125.576,184.241 125.723 C 183.873 125.870,182.666 126.266,181.559 126.602 C 180.453 126.937,179.404 127.332,179.229 127.479 C 179.054 127.625,178.637 127.745,178.302 127.745 C 177.968 127.745,177.432 127.891,177.112 128.068 C 176.792 128.246,173.512 129.387,169.824 130.604 C 166.136 131.820,162.816 132.949,162.448 133.113 C 162.079 133.276,160.495 133.813,158.927 134.305 C 157.360 134.798,155.775 135.327,155.407 135.481 C 155.038 135.636,153.529 136.153,152.054 136.630 C 150.578 137.107,149.109 137.642,148.789 137.818 C 148.469 137.995,148.039 138.139,147.834 138.139 C 147.629 138.139,146.985 138.353,146.404 138.614 C 145.823 138.876,144.367 139.424,143.168 139.832 C 136.840 141.989,131.934 145.123,130.722 147.785 C 129.533 150.395,129.372 152.281,129.189 165.717 C 129.090 173.047,128.898 179.044,128.763 179.044 C 128.629 179.044,128.081 178.835,127.545 178.579 C 127.010 178.323,124.082 177.175,121.039 176.029 C 113.443 173.167,101.710 168.720,100.084 168.087 C 99.346 167.799,98.441 167.450,98.072 167.309 C 96.870 166.852,94.407 165.886,93.378 165.469 C 92.825 165.244,91.467 164.719,90.360 164.303 C 89.254 163.886,87.873 163.336,87.292 163.080 C 86.711 162.824,86.068 162.615,85.864 162.615 C 85.659 162.615,84.852 162.332,84.070 161.987 C 83.288 161.641,80.914 160.723,78.793 159.947 C 76.672 159.170,74.635 158.410,74.267 158.256 C 73.898 158.102,71.484 157.199,68.902 156.248 C 66.320 155.297,63.303 154.169,62.196 153.741 C 61.090 153.313,59.279 152.623,58.173 152.208 C 57.066 151.792,55.708 151.264,55.155 151.033 C 52.798 150.051,43.348 146.521,43.077 146.521 C 42.537 146.521,33.017 141.673,32.523 141.146 C 32.431 141.047,31.561 140.464,30.590 139.850 C 29.619 139.236,27.959 137.732,26.902 136.508 C 25.844 135.284,24.891 134.208,24.784 134.116 C 24.141 133.564,22.093 129.504,21.625 127.853 C 21.320 126.780,20.930 125.432,20.757 124.858 C 20.157 122.865,20.386 80.711,21.004 79.230 C 21.855 77.192,23.968 74.931,25.899 73.990 L 27.661 73.132 201.844 73.196 L 376.027 73.261 378.060 74.324 M204.100 133.094 C 204.427 133.277,205.901 133.818,207.376 134.295 C 208.852 134.773,210.360 135.284,210.729 135.431 C 211.098 135.578,212.305 135.976,213.412 136.316 C 214.518 136.656,215.650 137.039,215.926 137.167 C 216.203 137.295,221.182 138.951,226.991 140.847 C 232.800 142.744,237.696 144.419,237.871 144.570 C 238.046 144.721,238.528 144.845,238.941 144.845 C 239.354 144.845,239.777 144.983,239.881 145.151 C 239.985 145.319,240.673 145.559,241.408 145.683 C 242.144 145.807,242.831 146.047,242.935 146.215 C 243.039 146.384,243.484 146.521,243.923 146.521 C 244.362 146.521,244.804 146.655,244.905 146.819 C 245.006 146.982,245.637 147.219,246.307 147.345 C 246.978 147.470,247.771 147.706,248.071 147.869 C 248.586 148.149,252.144 149.415,256.664 150.926 C 259.155 151.759,259.675 151.964,261.358 152.779 L 262.699 153.428 262.699 177.887 C 262.699 206.006,262.711 205.755,260.863 215.423 C 260.443 217.620,258.925 222.274,258.462 222.783 C 258.303 222.958,258.173 223.364,258.173 223.684 C 258.173 225.073,253.665 233.158,250.352 237.712 C 247.366 241.816,240.298 249.302,235.876 253.046 C 231.674 256.603,230.711 257.386,228.342 259.179 C 227.001 260.193,225.432 261.412,224.855 261.888 C 223.925 262.654,216.572 267.862,215.188 268.734 C 214.895 268.919,212.120 270.696,209.021 272.684 C 202.410 276.925,202.356 276.945,200.546 275.803 C 199.792 275.327,199.103 274.937,199.014 274.937 C 198.926 274.937,197.753 274.198,196.409 273.294 C 192.404 270.602,185.943 266.401,185.583 266.255 C 185.398 266.179,184.116 265.270,182.733 264.233 C 179.163 261.558,178.399 260.995,176.697 259.789 C 175.868 259.201,175.113 258.613,175.021 258.481 C 174.929 258.350,173.495 257.168,171.836 255.854 C 165.325 250.700,155.870 241.201,153.730 237.663 C 153.546 237.358,152.573 235.926,151.569 234.481 C 147.728 228.951,143.538 218.686,142.489 212.238 C 141.198 204.305,141.151 203.001,141.238 177.967 L 141.324 153.465 144.510 152.158 C 146.262 151.439,147.921 150.768,148.198 150.667 C 148.474 150.567,149.003 150.359,149.371 150.207 C 149.740 150.054,151.249 149.530,152.724 149.042 C 154.199 148.554,155.708 148.024,156.077 147.865 C 156.446 147.706,158.634 146.950,160.939 146.186 C 163.244 145.422,165.432 144.667,165.801 144.509 C 166.169 144.351,167.301 143.974,168.315 143.671 C 169.329 143.368,170.461 142.986,170.830 142.821 C 171.199 142.657,176.102 141.002,181.727 139.145 C 187.351 137.288,192.255 135.643,192.624 135.490 C 194.606 134.667,195.110 134.475,196.647 133.957 C 197.569 133.647,198.625 133.265,198.994 133.108 C 199.363 132.952,199.891 132.741,200.168 132.640 C 200.850 132.392,203.368 132.682,204.100 133.094 M10.498 228.591 C 10.627 303.444,10.645 304.470,11.824 305.649 C 11.960 305.785,12.070 306.167,12.070 306.498 C 12.070 308.003,14.243 313.244,15.621 315.066 C 16.066 315.653,16.429 316.259,16.429 316.412 C 16.429 317.828,26.458 326.182,30.117 327.815 C 32.071 328.687,32.696 328.908,35.876 329.853 C 38.044 330.496,358.142 330.915,363.560 330.282 C 369.693 329.564,373.925 327.961,377.919 324.843 C 378.591 324.319,379.273 323.889,379.434 323.889 C 380.232 323.889,387.930 315.403,387.930 314.524 C 387.930 314.327,388.044 314.166,388.183 314.166 C 388.322 314.166,388.645 313.676,388.901 313.076 C 389.156 312.477,389.697 311.232,390.103 310.310 C 390.832 308.658,391.202 307.393,392.215 303.101 C 392.661 301.212,392.745 294.861,392.845 255.323 C 392.908 230.243,392.997 197.615,393.043 182.816 C 393.090 167.773,392.998 155.909,392.836 155.909 C 392.676 155.909,391.469 156.709,390.153 157.686 C 386.657 160.284,383.802 162.242,380.302 164.442 L 377.200 166.391 377.200 233.105 C 377.200 291.944,377.140 300.063,376.686 301.880 C 375.145 308.054,370.258 312.828,363.933 314.338 C 360.826 315.080,41.845 315.073,38.994 314.331 C 34.092 313.055,29.108 308.895,27.552 304.780 C 26.143 301.053,26.177 302.792,26.164 233.113 L 26.153 166.646 24.225 165.385 C 23.164 164.691,22.246 164.011,22.185 163.873 C 22.123 163.734,21.961 163.621,21.823 163.621 C 21.445 163.621,16.184 160.036,13.101 157.677 L 10.372 155.589 10.498 228.591 M190.029 176.046 L 189.941 188.807 177.200 188.871 L 164.459 188.935 164.459 200.838 L 164.459 212.741 177.284 212.829 L 190.109 212.917 190.109 225.318 L 190.109 237.720 201.840 237.720 L 213.571 237.720 213.659 225.398 L 213.747 213.076 225.985 212.909 L 238.223 212.741 238.223 200.838 L 238.223 188.935 225.985 188.872 L 213.747 188.808 213.659 176.047 L 213.571 163.286 201.844 163.286 L 190.117 163.286 190.029 176.046 " stroke="none" fill="#fbfaf3" fill-rule="evenodd"></path><path id="path1" d="M0.000 167.645 L 0.000 335.289 200.000 335.289 L 400.000 335.289 400.000 167.645 L 400.000 0.000 200.000 0.000 L 0.000 0.000 0.000 167.645 M259.536 4.626 C 268.761 6.570,277.955 17.392,277.955 26.309 C 277.955 27.071,278.108 27.848,278.295 28.035 C 278.514 28.254,278.604 32.116,278.546 38.915 L 278.458 49.455 269.673 49.545 L 260.888 49.634 260.788 38.136 L 260.687 26.637 259.413 24.902 C 257.166 21.842,263.048 22.121,200.921 22.127 L 145.799 22.133 144.341 23.136 C 141.640 24.994,141.678 24.794,141.562 37.972 L 141.460 49.623 132.573 49.623 L 123.685 49.623 123.799 36.630 C 123.928 21.790,123.757 22.879,127.110 15.591 C 128.455 12.668,133.169 8.314,136.798 6.643 C 137.997 6.091,139.253 5.493,139.590 5.315 C 139.927 5.137,140.983 4.904,141.937 4.798 C 142.891 4.691,143.898 4.478,144.174 4.324 C 145.002 3.865,257.317 4.159,259.536 4.626 M374.082 57.324 C 374.967 57.502,376.220 57.704,376.865 57.772 C 377.510 57.840,378.265 57.978,378.541 58.080 C 378.818 58.181,379.723 58.447,380.553 58.672 C 381.383 58.896,382.695 59.366,383.469 59.716 C 384.242 60.066,384.962 60.352,385.068 60.352 C 385.526 60.352,390.146 63.621,391.466 64.878 C 392.541 65.903,394.788 69.078,395.370 70.396 C 395.740 71.234,396.181 72.221,396.350 72.590 C 398.343 76.944,398.695 80.889,398.807 100.084 C 398.937 122.356,398.464 127.143,395.407 134.451 C 394.162 137.428,391.514 142.224,390.778 142.834 C 390.502 143.063,390.277 143.396,390.277 143.573 C 390.277 143.968,386.346 148.508,385.415 149.189 C 385.046 149.458,383.990 150.383,383.068 151.243 C 379.531 154.542,374.911 157.122,366.639 160.417 C 364.426 161.298,362.313 162.149,361.945 162.307 C 361.576 162.465,359.690 163.204,357.754 163.950 C 355.817 164.695,353.971 165.454,353.651 165.637 C 353.331 165.819,352.795 165.968,352.461 165.968 C 352.126 165.968,351.709 166.094,351.534 166.248 C 351.359 166.402,350.461 166.793,349.539 167.118 C 348.617 167.442,347.387 167.920,346.806 168.179 C 346.225 168.438,345.582 168.650,345.376 168.650 C 345.171 168.650,344.741 168.784,344.421 168.947 C 343.808 169.259,343.120 169.541,340.654 170.495 C 339.824 170.815,338.843 171.195,338.474 171.339 C 338.106 171.482,337.253 171.841,336.580 172.137 C 335.906 172.432,335.188 172.674,334.982 172.674 C 334.777 172.674,334.348 172.809,334.027 172.975 C 333.452 173.272,332.686 173.572,328.751 175.039 C 327.645 175.452,326.211 176.009,325.566 176.278 C 323.388 177.184,323.060 177.309,318.357 179.044 C 315.775 179.997,313.361 180.903,312.992 181.057 C 312.624 181.212,310.436 182.042,308.131 182.903 C 305.826 183.763,303.487 184.662,302.934 184.900 C 302.381 185.138,298.231 186.726,293.713 188.429 C 289.195 190.132,285.046 191.723,284.493 191.965 C 283.940 192.207,282.582 192.729,281.475 193.125 C 280.369 193.521,279.162 193.970,278.793 194.122 C 278.424 194.274,277.368 194.689,276.446 195.044 L 274.769 195.689 274.568 201.868 C 274.457 205.266,274.183 209.232,273.958 210.682 C 273.734 212.131,273.511 213.639,273.463 214.034 C 273.415 214.429,273.285 214.979,273.174 215.256 C 273.062 215.532,272.901 216.287,272.815 216.932 C 272.460 219.597,270.247 226.895,268.875 229.921 C 268.521 230.703,268.231 231.422,268.231 231.520 C 268.231 231.798,265.435 237.532,265.207 237.720 C 265.096 237.812,264.420 238.868,263.705 240.067 C 262.991 241.266,261.567 243.366,260.541 244.734 C 259.515 246.103,258.167 247.913,257.546 248.758 C 256.378 250.346,246.245 260.520,243.907 262.453 C 240.283 265.448,238.835 266.653,238.223 267.183 C 236.775 268.438,229.657 273.618,226.320 275.844 C 218.646 280.966,215.976 282.689,214.920 283.202 C 214.644 283.336,213.663 283.925,212.741 284.511 C 202.526 290.999,201.712 290.865,184.285 279.799 C 178.600 276.188,167.413 268.327,166.645 267.401 C 166.412 267.120,166.094 266.890,165.938 266.890 C 165.783 266.890,165.160 266.449,164.554 265.909 C 163.949 265.369,162.020 263.727,160.268 262.260 C 156.700 259.272,148.973 251.763,147.090 249.455 C 139.726 240.429,136.368 234.363,132.429 222.967 C 130.891 218.519,129.865 211.808,129.331 202.704 L 128.919 195.684 126.572 194.769 C 125.281 194.266,123.093 193.447,121.710 192.948 C 120.327 192.449,118.894 191.916,118.525 191.763 C 117.142 191.191,112.754 189.489,110.813 188.774 C 109.707 188.366,108.500 187.900,108.131 187.739 C 107.762 187.579,106.253 186.985,104.778 186.421 C 103.303 185.856,101.718 185.228,101.257 185.025 C 100.796 184.821,100.117 184.542,99.749 184.404 C 99.125 184.172,96.945 183.332,95.390 182.726 C 95.021 182.583,94.191 182.276,93.546 182.046 C 92.900 181.815,91.920 181.437,91.366 181.206 C 90.813 180.975,89.229 180.379,87.846 179.883 C 86.463 179.386,84.878 178.790,84.325 178.559 C 83.772 178.328,82.791 177.950,82.146 177.720 C 81.500 177.489,80.671 177.171,80.302 177.012 C 78.242 176.126,73.590 174.350,73.330 174.350 C 73.163 174.350,72.551 174.138,71.970 173.878 C 71.389 173.619,69.405 172.852,67.561 172.174 C 63.707 170.758,61.942 170.079,60.520 169.469 C 59.966 169.231,58.609 168.710,57.502 168.311 C 56.396 167.912,55.015 167.373,54.434 167.112 C 53.853 166.852,53.210 166.639,53.005 166.639 C 52.801 166.639,51.993 166.353,51.212 166.004 C 50.430 165.655,48.282 164.806,46.438 164.118 C 44.593 163.430,42.632 162.673,42.079 162.435 C 41.526 162.198,40.168 161.677,39.061 161.278 C 37.955 160.879,36.597 160.353,36.044 160.109 C 35.490 159.865,33.604 159.091,31.852 158.390 C 24.693 155.524,12.070 145.442,12.070 142.588 C 12.070 142.399,11.824 142.040,11.523 141.791 C 10.374 140.837,7.113 133.498,6.102 129.589 C 5.911 128.852,5.554 127.569,5.308 126.739 C 4.955 125.546,4.862 120.361,4.862 101.928 C 4.862 78.346,4.881 77.903,6.038 74.937 C 6.182 74.568,6.564 73.512,6.888 72.590 C 7.211 71.668,7.755 70.513,8.097 70.024 C 8.438 69.534,8.718 69.025,8.718 68.893 C 8.718 68.226,12.372 64.283,14.347 62.818 C 18.172 59.982,21.877 58.500,27.661 57.492 C 30.654 56.971,371.510 56.805,374.082 57.324 M25.899 73.990 C 23.968 74.931,21.855 77.192,21.004 79.230 C 20.386 80.711,20.157 122.865,20.757 124.858 C 20.930 125.432,21.320 126.780,21.625 127.853 C 22.093 129.504,24.141 133.564,24.784 134.116 C 24.891 134.208,25.844 135.284,26.902 136.508 C 27.959 137.732,29.619 139.236,30.590 139.850 C 31.561 140.464,32.431 141.047,32.523 141.146 C 33.017 141.673,42.537 146.521,43.077 146.521 C 43.348 146.521,52.798 150.051,55.155 151.033 C 55.708 151.264,57.066 151.792,58.173 152.208 C 59.279 152.623,61.090 153.313,62.196 153.741 C 63.303 154.169,66.320 155.297,68.902 156.248 C 71.484 157.199,73.898 158.102,74.267 158.256 C 74.635 158.410,76.672 159.170,78.793 159.947 C 80.914 160.723,83.288 161.641,84.070 161.987 C 84.852 162.332,85.659 162.615,85.864 162.615 C 86.068 162.615,86.711 162.824,87.292 163.080 C 87.873 163.336,89.254 163.886,90.360 164.303 C 91.467 164.719,92.825 165.244,93.378 165.469 C 94.407 165.886,96.870 166.852,98.072 167.309 C 98.441 167.450,99.346 167.799,100.084 168.087 C 101.710 168.720,113.443 173.167,121.039 176.029 C 124.082 177.175,127.010 178.323,127.545 178.579 C 128.081 178.835,128.629 179.044,128.763 179.044 C 128.898 179.044,129.090 173.047,129.189 165.717 C 129.372 152.281,129.533 150.395,130.722 147.785 C 131.934 145.123,136.840 141.989,143.168 139.832 C 144.367 139.424,145.823 138.876,146.404 138.614 C 146.985 138.353,147.629 138.139,147.834 138.139 C 148.039 138.139,148.469 137.995,148.789 137.818 C 149.109 137.642,150.578 137.107,152.054 136.630 C 153.529 136.153,155.038 135.636,155.407 135.481 C 155.775 135.327,157.360 134.798,158.927 134.305 C 160.495 133.813,162.079 133.276,162.448 133.113 C 162.816 132.949,166.136 131.820,169.824 130.604 C 173.512 129.387,176.792 128.246,177.112 128.068 C 177.432 127.891,177.968 127.745,178.302 127.745 C 178.637 127.745,179.054 127.625,179.229 127.479 C 179.404 127.332,180.453 126.937,181.559 126.602 C 182.666 126.266,183.873 125.870,184.241 125.723 C 184.610 125.576,185.742 125.186,186.756 124.856 C 187.770 124.527,188.744 124.137,188.919 123.989 C 189.094 123.842,189.559 123.722,189.953 123.722 C 190.346 123.722,190.759 123.630,190.871 123.519 C 192.370 122.019,202.041 119.917,203.924 120.681 C 204.347 120.853,205.599 121.255,206.706 121.575 C 207.812 121.894,208.868 122.264,209.053 122.397 C 209.237 122.530,209.916 122.749,210.562 122.883 C 211.207 123.018,211.886 123.233,212.070 123.361 C 212.255 123.489,213.764 124.016,215.423 124.532 C 217.083 125.048,218.743 125.597,219.111 125.752 C 219.480 125.906,225.968 128.089,233.529 130.601 C 241.090 133.113,247.578 135.288,247.946 135.434 C 248.315 135.581,249.447 135.960,250.461 136.278 C 251.475 136.595,252.645 136.993,253.060 137.162 C 253.474 137.330,254.153 137.608,254.568 137.778 C 254.983 137.949,256.228 138.351,257.334 138.671 C 258.441 138.992,259.497 139.360,259.681 139.489 C 259.866 139.618,260.448 139.826,260.976 139.953 C 261.503 140.079,262.635 140.497,263.490 140.881 C 274.197 145.689,274.328 145.983,274.499 165.549 C 274.632 180.753,274.412 179.697,277.189 178.495 C 277.887 178.193,278.759 177.836,279.128 177.702 C 279.497 177.567,280.176 177.305,280.637 177.118 C 281.098 176.931,282.154 176.515,282.984 176.194 C 283.814 175.874,284.795 175.494,285.163 175.350 C 285.532 175.206,286.362 174.900,287.008 174.669 C 287.653 174.439,288.634 174.062,289.187 173.834 C 289.740 173.605,293.286 172.253,297.066 170.831 C 300.847 169.408,304.241 168.128,304.610 167.985 C 304.979 167.842,305.960 167.462,306.790 167.142 C 309.334 166.158,309.601 166.052,310.813 165.550 C 311.459 165.282,312.515 164.872,313.160 164.638 C 313.806 164.404,314.786 164.027,315.339 163.799 C 315.893 163.571,317.251 163.043,318.357 162.626 C 319.464 162.209,320.844 161.659,321.425 161.404 C 322.006 161.148,322.649 160.939,322.854 160.939 C 323.059 160.939,323.866 160.658,324.647 160.314 C 325.429 159.971,326.748 159.422,327.578 159.095 C 328.407 158.768,329.539 158.317,330.092 158.092 C 330.645 157.868,332.003 157.346,333.110 156.932 C 334.216 156.518,335.423 156.053,335.792 155.899 C 337.472 155.195,342.682 153.227,342.864 153.227 C 342.976 153.227,343.543 153.015,344.124 152.756 C 344.705 152.498,347.066 151.579,349.371 150.716 C 351.676 149.852,354.015 148.954,354.568 148.719 C 355.122 148.484,357.083 147.716,358.927 147.012 C 360.771 146.308,363.623 145.004,365.264 144.115 C 366.905 143.225,368.351 142.498,368.478 142.498 C 368.604 142.498,369.568 141.894,370.621 141.157 C 371.675 140.419,372.628 139.816,372.739 139.816 C 374.786 139.816,381.307 130.091,382.358 125.471 C 383.160 121.943,383.177 81.214,382.377 79.299 C 381.317 76.763,380.148 75.416,378.060 74.324 L 376.027 73.261 201.844 73.196 L 27.661 73.132 25.899 73.990 M200.168 132.640 C 199.891 132.741,199.363 132.952,198.994 133.108 C 198.625 133.265,197.569 133.647,196.647 133.957 C 195.110 134.475,194.606 134.667,192.624 135.490 C 192.255 135.643,187.351 137.288,181.727 139.145 C 176.102 141.002,171.199 142.657,170.830 142.821 C 170.461 142.986,169.329 143.368,168.315 143.671 C 167.301 143.974,166.169 144.351,165.801 144.509 C 165.432 144.667,163.244 145.422,160.939 146.186 C 158.634 146.950,156.446 147.706,156.077 147.865 C 155.708 148.024,154.199 148.554,152.724 149.042 C 151.249 149.530,149.740 150.054,149.371 150.207 C 149.003 150.359,148.474 150.567,148.198 150.667 C 147.921 150.768,146.262 151.439,144.510 152.158 L 141.324 153.465 141.238 177.967 C 141.151 203.001,141.198 204.305,142.489 212.238 C 143.538 218.686,147.728 228.951,151.569 234.481 C 152.573 235.926,153.546 237.358,153.730 237.663 C 155.870 241.201,165.325 250.700,171.836 255.854 C 173.495 257.168,174.929 258.350,175.021 258.481 C 175.113 258.613,175.868 259.201,176.697 259.789 C 178.399 260.995,179.163 261.558,182.733 264.233 C 184.116 265.270,185.398 266.179,185.583 266.255 C 185.943 266.401,192.404 270.602,196.409 273.294 C 197.753 274.198,198.926 274.937,199.014 274.937 C 199.103 274.937,199.792 275.327,200.546 275.803 C 202.356 276.945,202.410 276.925,209.021 272.684 C 212.120 270.696,214.895 268.919,215.188 268.734 C 216.572 267.862,223.925 262.654,224.855 261.888 C 225.432 261.412,227.001 260.193,228.342 259.179 C 230.711 257.386,231.674 256.603,235.876 253.046 C 240.298 249.302,247.366 241.816,250.352 237.712 C 253.665 233.158,258.173 225.073,258.173 223.684 C 258.173 223.364,258.303 222.958,258.462 222.783 C 258.925 222.274,260.443 217.620,260.863 215.423 C 262.711 205.755,262.699 206.006,262.699 177.887 L 262.699 153.428 261.358 152.779 C 259.675 151.964,259.155 151.759,256.664 150.926 C 252.144 149.415,248.586 148.149,248.071 147.869 C 247.771 147.706,246.978 147.470,246.307 147.345 C 245.637 147.219,245.006 146.982,244.905 146.819 C 244.804 146.655,244.362 146.521,243.923 146.521 C 243.484 146.521,243.039 146.384,242.935 146.215 C 242.831 146.047,242.144 145.807,241.408 145.683 C 240.673 145.559,239.985 145.319,239.881 145.151 C 239.777 144.983,239.354 144.845,238.941 144.845 C 238.528 144.845,238.046 144.721,237.871 144.570 C 237.696 144.419,232.800 142.744,226.991 140.847 C 221.182 138.951,216.203 137.295,215.926 137.167 C 215.650 137.039,214.518 136.656,213.412 136.316 C 212.305 135.976,211.098 135.578,210.729 135.431 C 210.360 135.284,208.852 134.773,207.376 134.295 C 205.901 133.818,204.427 133.277,204.100 133.094 C 203.368 132.682,200.850 132.392,200.168 132.640 M18.702 161.693 C 20.281 162.754,21.686 163.621,21.823 163.621 C 21.961 163.621,22.123 163.734,22.185 163.873 C 22.246 164.011,23.164 164.691,24.225 165.385 L 26.153 166.646 26.164 233.113 C 26.177 302.792,26.143 301.053,27.552 304.780 C 29.108 308.895,34.092 313.055,38.994 314.331 C 41.845 315.073,360.826 315.080,363.933 314.338 C 370.258 312.828,375.145 308.054,376.686 301.880 C 377.140 300.063,377.200 291.944,377.200 233.105 L 377.200 166.391 380.302 164.442 C 383.802 162.242,386.657 160.284,390.153 157.686 C 391.469 156.709,392.676 155.909,392.836 155.909 C 392.998 155.909,393.090 167.773,393.043 182.816 C 392.997 197.615,392.908 230.243,392.845 255.323 C 392.745 294.861,392.661 301.212,392.215 303.101 C 391.202 307.393,390.832 308.658,390.103 310.310 C 389.697 311.232,389.156 312.477,388.901 313.076 C 388.645 313.676,388.322 314.166,388.183 314.166 C 388.044 314.166,387.930 314.327,387.930 314.524 C 387.930 315.403,380.232 323.889,379.434 323.889 C 379.273 323.889,378.591 324.319,377.919 324.843 C 373.925 327.961,369.693 329.564,363.560 330.282 C 358.142 330.915,38.044 330.496,35.876 329.853 C 32.696 328.908,32.071 328.687,30.117 327.815 C 26.458 326.182,16.429 317.828,16.429 316.412 C 16.429 316.259,16.066 315.653,15.621 315.066 C 14.243 313.244,12.070 308.003,12.070 306.498 C 12.070 306.167,11.960 305.785,11.824 305.649 C 10.645 304.470,10.627 303.444,10.498 228.591 L 10.372 155.589 13.101 157.677 C 14.602 158.826,17.122 160.633,18.702 161.693 M213.659 176.047 L 213.747 188.808 225.985 188.872 L 238.223 188.935 238.223 200.838 L 238.223 212.741 225.985 212.909 L 213.747 213.076 213.659 225.398 L 213.571 237.720 201.840 237.720 L 190.109 237.720 190.109 225.318 L 190.109 212.917 177.284 212.829 L 164.459 212.741 164.459 200.838 L 164.459 188.935 177.200 188.871 L 189.941 188.807 190.029 176.046 L 190.117 163.286 201.844 163.286 L 213.571 163.286 213.659 176.047 " stroke="none" fill="#b3231b" fill-rule="evenodd"></path></g></svg>