<svg width="631" height="631" viewBox="0 0 631 631" fill="none" xmlns="http://www.w3.org/2000/svg">
<g clip-path="url(#clip0_1_54)">
<mask id="mask0_1_54" style="mask-type:luminance" maskUnits="userSpaceOnUse" x="0" y="35" width="631" height="631">
<path d="M631 35H0V666H631V35Z" fill="white"/>
</mask>
<g mask="url(#mask0_1_54)">
<path d="M166.341 107.923C169.159 103.043 174.367 100.036 180.003 100.036H450.997C456.631 100.036 461.839 103.043 464.658 107.923L600.155 342.61C602.97 347.492 602.97 353.505 600.155 358.385L464.658 593.072C461.839 597.952 456.631 600.96 450.997 600.96H180.003C174.367 600.96 169.159 597.952 166.341 593.072L30.8449 358.385C28.0269 353.505 28.0269 347.492 30.8449 342.61L166.341 107.923Z" fill="url(#paint0_linear_1_54)"/>
</g>
<g clip-path="url(#clip1_1_54)">
<path d="M232.898 312.034C235.577 316.047 240.057 318.378 244.762 318.378C245.687 318.378 246.621 318.288 247.55 318.104C253.212 316.977 257.638 312.55 258.764 306.889L274.662 226.958C275.4 223.245 274.635 219.391 272.531 216.244C270.428 213.096 267.161 210.913 263.449 210.175L183.518 194.275C177.853 193.148 172.073 195.545 168.867 200.344C165.66 205.144 165.66 211.404 168.867 216.203L195.965 256.758C174.884 283.567 163.386 316.621 163.386 351.003C163.386 411.69 199.326 466.606 254.945 490.91C256.805 491.722 258.745 492.108 260.653 492.108C266.152 492.108 271.395 488.909 273.739 483.546C276.894 476.324 273.598 467.909 266.375 464.753C221.154 444.993 191.933 400.343 191.933 351.004C191.933 326.241 199.272 302.329 212.857 282.042L232.898 312.034Z" fill="white"/>
<path d="M436.045 445.24C457.119 418.432 468.614 385.381 468.614 351.002C468.614 290.316 432.675 235.4 377.055 211.095C369.833 207.94 361.418 211.236 358.262 218.459C355.106 225.681 358.402 234.096 365.625 237.253C410.847 257.014 440.068 301.663 440.068 351.003C440.068 375.761 432.731 399.671 419.149 419.956L399.111 389.969C395.904 385.169 390.124 382.771 384.461 383.9C378.798 385.026 374.371 389.452 373.246 395.113L357.346 475.044C356.607 478.757 357.373 482.611 359.477 485.758C361.58 488.906 364.847 491.088 368.56 491.827L448.493 507.725C449.422 507.909 450.355 507.999 451.279 507.999C451.422 507.999 451.564 507.998 451.707 507.994C459.399 507.776 465.568 501.472 465.568 493.727C465.568 490.545 464.526 487.606 462.766 485.232L436.045 445.24Z" fill="white"/>
</g>
</g>
<defs>
<linearGradient id="paint0_linear_1_54" x1="315.499" y1="100.036" x2="315.499" y2="600.96" gradientUnits="userSpaceOnUse">
<stop offset="0.0839937" stop-color="#43C6F9"/>
<stop offset="1" stop-color="#ED2D53"/>
</linearGradient>
<clipPath id="clip0_1_54">
<rect width="631" height="631" fill="white"/>
</clipPath>
<clipPath id="clip1_1_54">
<rect width="314" height="314" fill="white" transform="translate(159 194)"/>
</clipPath>
</defs>
</svg>
