 <svg id="svg" version="1.1" xmlns="http://www.w3.org/2000/svg" xmlns:xlink="http://www.w3.org/1999/xlink"  viewBox="0, 0, 400,400"><g id="svgg"><path id="path0" d="M150.100 41.924 C 149.385 42.265,148.800 42.789,148.800 43.089 C 148.800 43.388,148.440 44.020,148.000 44.492 C 147.230 45.319,147.200 45.904,147.200 60.075 L 147.200 74.800 94.446 74.800 C 39.028 74.800,39.883 74.776,36.705 76.437 C 36.323 76.637,35.738 76.800,35.405 76.800 C 35.072 76.800,34.800 76.959,34.800 77.153 C 34.800 77.348,34.440 77.601,34.000 77.716 C 33.560 77.831,33.200 78.212,33.200 78.563 C 33.200 78.913,32.924 79.200,32.587 79.200 C 31.838 79.200,29.200 81.769,29.200 82.498 C 29.200 82.787,28.840 83.283,28.400 83.600 C 27.960 83.917,27.600 84.497,27.600 84.888 C 27.600 85.280,27.420 85.600,27.200 85.600 C 26.980 85.600,26.800 85.842,26.800 86.139 C 26.800 86.435,26.485 87.290,26.100 88.039 C 25.013 90.153,25.013 295.047,26.100 297.161 C 26.485 297.910,26.800 298.829,26.800 299.202 C 26.800 299.576,27.340 300.446,28.000 301.137 C 28.660 301.828,29.200 302.579,29.200 302.807 C 29.200 304.338,35.659 308.800,37.875 308.800 C 38.384 308.800,38.800 308.980,38.800 309.200 C 38.800 309.420,39.160 309.600,39.600 309.600 C 40.040 309.600,40.400 309.780,40.400 310.000 C 40.400 310.266,94.000 310.400,200.400 310.400 C 306.800 310.400,360.400 310.266,360.400 310.000 C 360.400 309.780,360.760 309.600,361.200 309.600 C 361.640 309.600,362.000 309.420,362.000 309.200 C 362.000 308.980,362.540 308.800,363.200 308.800 C 363.860 308.800,364.400 308.620,364.400 308.400 C 364.400 308.180,364.752 308.000,365.182 308.000 C 365.612 308.000,366.414 307.550,366.964 307.000 C 367.514 306.450,368.107 305.994,368.282 305.987 C 368.794 305.967,370.800 304.078,370.800 303.616 C 370.800 303.383,371.340 302.628,372.000 301.937 C 372.660 301.246,373.200 300.258,373.200 299.741 C 373.200 299.223,373.366 298.800,373.569 298.800 C 374.998 298.800,375.000 298.673,375.000 192.600 C 375.000 86.527,374.998 86.400,373.569 86.400 C 373.366 86.400,373.200 85.932,373.200 85.360 C 373.200 84.721,372.738 83.889,372.000 83.200 C 371.340 82.583,370.800 81.889,370.800 81.658 C 370.800 81.130,368.898 79.200,368.378 79.200 C 368.166 79.200,367.428 78.660,366.737 78.000 C 366.046 77.340,365.058 76.800,364.541 76.800 C 364.023 76.800,363.600 76.620,363.600 76.400 C 363.600 76.180,363.075 76.000,362.433 76.000 C 361.792 76.000,361.192 75.775,361.100 75.500 C 360.968 75.104,349.687 74.977,306.867 74.892 L 252.800 74.783 252.800 59.480 C 252.800 44.635,252.776 44.159,252.000 43.600 C 251.560 43.283,251.200 42.793,251.200 42.512 C 251.200 42.230,250.761 42.000,250.224 42.000 C 249.687 42.000,249.136 41.820,249.000 41.600 C 248.540 40.856,151.674 41.173,150.100 41.924 M240.400 64.200 L 240.400 74.800 200.400 74.800 L 160.400 74.800 160.400 64.200 L 160.400 53.600 200.400 53.600 L 240.400 53.600 240.400 64.200 M359.293 87.973 C 363.050 90.356,363.733 93.465,361.551 98.244 C 361.138 99.148,360.800 100.159,360.800 100.490 C 360.800 101.684,356.631 111.683,355.153 114.035 C 354.519 115.044,354.000 116.134,354.000 116.456 C 354.000 116.779,353.488 117.753,352.862 118.621 C 352.236 119.490,351.299 121.010,350.779 122.000 C 350.260 122.990,349.181 124.610,348.384 125.600 C 346.625 127.781,343.600 132.191,343.600 132.573 C 343.600 132.840,341.950 134.571,332.897 143.800 C 328.593 148.188,325.469 150.964,323.630 152.035 C 323.096 152.346,321.222 153.734,319.465 155.121 C 317.708 156.507,315.445 158.119,314.435 158.702 C 313.426 159.285,312.496 159.912,312.368 160.095 C 312.093 160.489,310.423 161.454,306.600 163.428 C 305.060 164.223,303.616 165.025,303.391 165.211 C 302.402 166.024,293.974 170.370,293.351 170.387 C 293.104 170.394,291.304 171.197,289.351 172.170 C 287.398 173.144,284.360 174.425,282.600 175.017 C 280.840 175.609,278.450 176.523,277.288 177.047 C 276.127 177.571,274.777 178.001,274.288 178.001 C 273.800 178.002,272.860 178.331,272.200 178.733 C 271.540 179.134,270.401 179.582,269.668 179.728 C 268.423 179.975,266.311 180.786,264.705 181.634 C 264.323 181.835,263.209 182.000,262.229 182.000 C 261.249 182.000,260.336 182.180,260.200 182.400 C 260.064 182.620,259.459 182.800,258.856 182.800 C 258.253 182.800,257.576 182.984,257.352 183.208 C 256.865 183.695,251.493 184.804,248.400 185.056 C 247.190 185.155,245.840 185.390,245.400 185.578 C 240.241 187.781,237.350 187.544,237.775 184.952 C 238.066 183.180,238.704 178.311,239.183 174.200 C 239.363 172.660,239.792 170.680,240.137 169.800 C 240.482 168.920,240.773 167.815,240.782 167.345 C 240.792 166.875,241.232 164.999,241.760 163.175 C 242.289 161.351,242.643 159.666,242.548 159.430 C 242.131 158.395,232.655 152.400,231.437 152.400 C 231.140 152.400,230.671 152.127,230.394 151.793 C 230.117 151.459,229.240 150.902,228.445 150.555 C 227.650 150.209,225.380 149.154,223.400 148.212 C 217.238 145.280,213.957 144.000,212.600 144.000 C 212.285 144.000,211.412 143.706,210.659 143.348 C 208.892 142.505,206.026 142.893,204.494 144.183 C 202.405 145.940,200.219 146.043,196.883 144.542 C 192.746 142.681,191.942 142.609,187.800 143.726 C 184.226 144.690,183.244 145.049,179.400 146.799 C 178.300 147.300,176.484 148.126,175.365 148.636 C 174.245 149.145,173.098 149.841,172.816 150.181 C 172.533 150.522,171.944 150.800,171.507 150.800 C 169.722 150.800,157.256 158.305,157.215 159.405 C 157.207 159.628,157.650 161.228,158.200 162.960 C 158.750 164.693,159.200 166.509,159.200 166.996 C 159.200 167.483,159.358 168.402,159.550 169.040 C 160.021 170.599,160.776 173.922,160.996 175.400 C 162.626 186.364,162.620 187.050,160.895 186.616 C 159.838 186.351,157.245 185.949,152.200 185.269 C 150.880 185.091,149.103 184.643,148.251 184.273 C 147.399 183.903,146.034 183.600,145.218 183.600 C 144.401 183.600,143.610 183.477,143.459 183.326 C 142.943 182.810,140.201 182.012,138.924 182.006 C 138.222 182.003,137.551 181.845,137.434 181.655 C 137.317 181.465,136.361 181.094,135.310 180.830 C 132.018 180.002,130.214 179.465,129.800 179.190 C 129.580 179.044,128.500 178.696,127.400 178.418 C 126.300 178.140,124.637 177.572,123.704 177.156 C 122.772 176.740,121.683 176.400,121.285 176.400 C 120.887 176.400,119.400 175.807,117.981 175.083 C 116.561 174.359,114.140 173.346,112.600 172.831 C 111.060 172.317,109.322 171.559,108.738 171.148 C 108.154 170.737,107.521 170.400,107.332 170.400 C 106.909 170.400,98.515 166.193,97.866 165.656 C 97.610 165.443,96.140 164.602,94.600 163.785 C 93.060 162.968,91.371 161.963,90.846 161.550 C 90.321 161.138,89.655 160.800,89.366 160.800 C 89.077 160.800,88.696 160.557,88.520 160.260 C 88.224 159.761,87.382 159.235,84.800 157.936 C 83.112 157.086,76.062 151.458,72.738 148.306 C 72.103 147.704,71.137 147.099,70.592 146.962 C 70.046 146.825,69.600 146.536,69.600 146.320 C 69.600 146.104,68.461 144.818,67.069 143.463 C 65.677 142.108,64.207 140.429,63.802 139.731 C 63.396 139.034,62.664 138.248,62.174 137.986 C 61.684 137.724,60.871 136.945,60.366 136.255 C 59.862 135.565,58.223 133.538,56.724 131.751 C 55.226 129.964,54.000 128.306,54.000 128.065 C 54.000 127.825,53.640 127.435,53.200 127.200 C 52.760 126.965,52.400 126.501,52.400 126.169 C 52.400 125.837,51.680 124.591,50.800 123.400 C 49.920 122.209,49.200 121.151,49.200 121.049 C 49.200 120.947,48.320 119.445,47.245 117.711 C 44.927 113.973,43.019 109.990,41.961 106.677 C 41.538 105.355,41.042 104.077,40.858 103.837 C 40.674 103.596,40.029 101.780,39.426 99.800 C 38.822 97.820,38.164 95.887,37.964 95.505 C 36.825 93.333,38.198 90.009,41.098 87.916 L 42.600 86.833 200.022 86.816 L 357.443 86.800 359.293 87.973 M39.416 126.607 C 40.067 127.820,40.870 129.346,41.200 129.998 C 41.530 130.650,42.005 131.187,42.257 131.191 C 42.508 131.196,42.998 131.911,43.345 132.780 C 43.693 133.649,44.335 134.551,44.773 134.785 C 45.210 135.019,45.868 135.845,46.236 136.619 C 46.604 137.394,47.241 138.208,47.652 138.428 C 48.063 138.648,48.400 139.100,48.400 139.433 C 48.400 139.766,49.300 140.938,50.400 142.038 C 51.500 143.138,52.400 144.194,52.400 144.385 C 52.400 144.816,61.467 154.000,61.892 154.000 C 62.062 154.000,63.754 155.491,65.652 157.313 C 67.549 159.136,69.529 160.855,70.051 161.133 C 72.801 162.599,73.269 162.915,73.468 163.434 C 73.588 163.745,73.891 164.007,74.143 164.016 C 74.394 164.025,75.223 164.565,75.985 165.216 C 76.747 165.867,77.587 166.400,77.852 166.400 C 78.118 166.400,79.112 167.147,80.063 168.060 C 81.013 168.973,82.333 169.951,82.995 170.232 C 83.658 170.514,84.820 171.207,85.578 171.772 C 86.335 172.337,87.097 172.800,87.270 172.800 C 87.443 172.800,88.533 173.390,89.692 174.112 C 90.852 174.833,92.610 175.830,93.600 176.327 C 94.590 176.824,95.670 177.398,96.000 177.604 C 97.159 178.326,105.113 182.000,105.516 182.000 C 105.741 182.000,106.616 182.330,107.462 182.734 C 111.311 184.572,112.709 185.169,114.200 185.613 C 115.080 185.876,116.520 186.408,117.400 186.796 C 118.913 187.463,120.010 187.870,122.800 188.800 C 123.460 189.020,124.585 189.400,125.300 189.644 C 126.015 189.888,127.320 190.265,128.200 190.483 C 129.080 190.700,131.510 191.386,133.600 192.007 C 141.380 194.321,148.237 195.871,154.600 196.755 C 162.972 197.918,162.883 197.840,162.386 203.600 C 161.612 212.559,160.828 216.620,158.416 224.149 C 158.002 225.441,157.766 226.767,157.892 227.096 C 158.127 227.708,161.723 229.563,162.800 229.628 C 163.130 229.648,164.120 230.086,165.000 230.601 C 165.880 231.117,167.770 232.162,169.200 232.924 C 173.173 235.043,173.550 235.266,177.261 237.716 C 179.165 238.972,180.892 240.000,181.099 240.000 C 181.307 240.000,181.802 240.360,182.200 240.800 C 182.598 241.240,183.153 241.600,183.433 241.600 C 183.713 241.600,184.296 242.050,184.729 242.600 C 185.161 243.150,185.690 243.600,185.903 243.600 C 186.117 243.600,187.621 244.858,189.246 246.396 C 190.870 247.934,192.380 249.197,192.600 249.203 C 192.820 249.209,194.212 250.439,195.693 251.935 C 199.893 256.181,199.846 256.172,202.928 253.209 C 204.354 251.838,206.393 250.100,207.460 249.347 C 208.527 248.594,209.580 247.752,209.800 247.476 C 212.276 244.374,225.667 235.466,233.198 231.910 C 235.949 230.612,238.513 229.380,238.895 229.174 C 239.277 228.968,239.853 228.800,240.176 228.800 C 243.223 228.800,243.269 228.183,240.798 220.400 C 240.072 218.113,239.376 214.948,238.996 212.200 C 238.256 206.854,237.994 204.654,237.758 201.777 L 237.492 198.554 239.646 198.092 C 240.831 197.839,242.430 197.516,243.200 197.374 C 243.970 197.233,245.320 196.949,246.200 196.742 C 247.080 196.535,248.970 196.207,250.400 196.013 C 251.830 195.819,253.810 195.463,254.800 195.223 C 255.790 194.983,257.500 194.623,258.600 194.422 C 260.902 194.003,264.809 192.883,270.800 190.927 C 273.110 190.173,275.540 189.451,276.200 189.324 C 276.860 189.197,277.878 188.757,278.462 188.346 C 279.046 187.936,280.075 187.600,280.750 187.600 C 281.424 187.600,282.617 187.240,283.400 186.800 C 284.183 186.360,285.168 186.000,285.589 186.000 C 286.009 186.000,286.464 185.820,286.600 185.600 C 286.736 185.380,287.175 185.200,287.575 185.200 C 287.975 185.200,288.526 184.930,288.800 184.600 C 289.074 184.270,289.686 184.000,290.160 184.000 C 290.634 184.000,291.377 183.764,291.811 183.476 C 292.245 183.188,293.368 182.708,294.306 182.410 C 295.244 182.112,296.211 181.628,296.455 181.334 C 296.698 181.040,297.154 180.800,297.468 180.800 C 298.179 180.800,312.853 173.245,313.400 172.597 C 313.620 172.337,314.385 171.894,315.100 171.613 C 315.815 171.333,316.400 170.964,316.400 170.795 C 316.400 170.625,317.085 170.213,317.923 169.878 C 318.760 169.543,319.682 168.983,319.972 168.634 C 320.261 168.285,320.718 168.000,320.987 168.000 C 321.256 168.000,321.819 167.617,322.238 167.150 C 322.657 166.682,324.293 165.425,325.872 164.356 C 327.452 163.287,328.859 162.228,328.998 162.003 C 329.138 161.777,330.905 160.359,332.926 158.851 C 337.886 155.150,346.573 146.536,352.005 139.931 C 356.196 134.834,356.680 134.193,357.385 132.800 C 357.775 132.030,358.419 131.040,358.817 130.600 C 359.215 130.160,360.013 128.855,360.591 127.700 C 361.319 126.245,361.881 125.600,362.421 125.600 C 363.190 125.600,363.200 126.486,363.200 194.400 L 363.200 263.200 200.400 263.200 L 37.600 263.200 37.587 253.300 C 37.580 247.855,37.579 217.150,37.583 185.066 C 37.589 145.570,37.458 126.482,37.177 125.958 C 36.950 125.532,36.872 125.007,37.005 124.792 C 37.535 123.935,38.287 124.502,39.416 126.607 M193.824 149.210 C 194.864 149.656,196.508 150.556,197.477 151.210 C 199.784 152.767,200.779 152.712,203.522 150.874 C 206.825 148.660,208.061 148.236,209.671 148.760 C 210.402 148.999,211.839 149.457,212.864 149.780 C 219.162 151.760,235.091 159.806,236.170 161.552 C 236.353 161.848,235.878 164.239,234.808 168.400 C 234.188 170.812,233.168 177.191,232.378 183.600 C 232.121 185.690,231.793 188.300,231.649 189.400 L 231.389 191.400 227.794 191.400 L 224.200 191.400 224.077 189.010 C 223.918 185.902,224.251 186.013,215.100 186.006 L 207.200 186.000 207.200 177.391 L 207.200 168.782 200.100 168.891 L 193.000 169.000 192.892 177.500 L 192.784 186.000 184.892 186.006 C 175.750 186.013,176.082 185.902,175.923 189.010 L 175.800 191.400 172.200 191.400 L 168.600 191.400 168.286 188.600 C 167.253 179.375,166.495 174.468,165.135 168.200 C 163.651 161.356,163.642 161.391,167.400 159.124 C 172.908 155.802,183.568 150.792,187.600 149.633 C 188.590 149.348,189.760 148.966,190.200 148.785 C 191.405 148.287,191.770 148.330,193.824 149.210 M176.000 198.200 L 176.200 200.600 184.500 200.708 L 192.800 200.816 192.806 209.108 C 192.809 213.669,192.958 217.629,193.136 217.910 C 193.382 218.298,195.081 218.394,200.230 218.310 L 207.000 218.200 207.108 209.508 L 207.216 200.816 215.508 200.708 L 223.800 200.600 224.000 198.200 L 224.200 195.800 227.799 195.800 L 231.399 195.800 231.656 198.200 C 231.797 199.520,232.131 202.670,232.397 205.200 C 233.134 212.215,233.832 216.113,235.331 221.594 C 236.081 224.333,236.306 224.053,231.469 226.398 C 224.859 229.602,218.398 233.539,213.366 237.428 C 212.247 238.293,210.627 239.534,209.766 240.187 C 208.904 240.839,206.467 242.864,204.348 244.687 C 200.656 247.863,199.539 248.472,199.001 247.602 C 198.537 246.851,189.402 239.363,185.800 236.781 C 183.820 235.361,182.020 234.061,181.800 233.892 C 180.101 232.583,175.327 229.821,170.800 227.528 C 167.830 226.024,165.108 224.627,164.751 224.425 C 164.167 224.094,164.159 223.846,164.668 221.929 C 166.553 214.842,167.370 209.807,167.983 201.494 C 168.451 195.160,168.161 195.546,172.333 195.685 L 175.800 195.800 176.000 198.200 M363.200 283.388 C 363.200 293.948,362.604 295.843,358.659 297.810 C 357.624 298.327,337.941 298.400,199.900 298.400 L 42.323 298.400 41.114 297.539 C 40.449 297.065,39.386 295.860,38.752 294.861 L 37.600 293.043 37.600 283.722 L 37.600 274.400 200.400 274.400 L 363.200 274.400 363.200 283.388 " stroke="none" fill="#fbfbfb" fill-rule="evenodd"></path><path id="path1" d="M41.098 87.916 C 38.198 90.009,36.825 93.333,37.964 95.505 C 38.164 95.887,38.822 97.820,39.426 99.800 C 40.029 101.780,40.674 103.596,40.858 103.837 C 41.042 104.077,41.538 105.355,41.961 106.677 C 43.019 109.990,44.927 113.973,47.245 117.711 C 48.320 119.445,49.200 120.947,49.200 121.049 C 49.200 121.151,49.920 122.209,50.800 123.400 C 51.680 124.591,52.400 125.837,52.400 126.169 C 52.400 126.501,52.760 126.965,53.200 127.200 C 53.640 127.435,54.000 127.825,54.000 128.065 C 54.000 128.306,55.226 129.964,56.724 131.751 C 58.223 133.538,59.862 135.565,60.366 136.255 C 60.871 136.945,61.684 137.724,62.174 137.986 C 62.664 138.248,63.396 139.034,63.802 139.731 C 64.207 140.429,65.677 142.108,67.069 143.463 C 68.461 144.818,69.600 146.104,69.600 146.320 C 69.600 146.536,70.046 146.825,70.592 146.962 C 71.137 147.099,72.103 147.704,72.738 148.306 C 76.062 151.458,83.112 157.086,84.800 157.936 C 87.382 159.235,88.224 159.761,88.520 160.260 C 88.696 160.557,89.077 160.800,89.366 160.800 C 89.655 160.800,90.321 161.138,90.846 161.550 C 91.371 161.963,93.060 162.968,94.600 163.785 C 96.140 164.602,97.610 165.443,97.866 165.656 C 98.515 166.193,106.909 170.400,107.332 170.400 C 107.521 170.400,108.154 170.737,108.738 171.148 C 109.322 171.559,111.060 172.317,112.600 172.831 C 114.140 173.346,116.561 174.359,117.981 175.083 C 119.400 175.807,120.887 176.400,121.285 176.400 C 121.683 176.400,122.772 176.740,123.704 177.156 C 124.637 177.572,126.300 178.140,127.400 178.418 C 128.500 178.696,129.580 179.044,129.800 179.190 C 130.214 179.465,132.018 180.002,135.310 180.830 C 136.361 181.094,137.317 181.465,137.434 181.655 C 137.551 181.845,138.222 182.003,138.924 182.006 C 140.201 182.012,142.943 182.810,143.459 183.326 C 143.610 183.477,144.401 183.600,145.218 183.600 C 146.034 183.600,147.399 183.903,148.251 184.273 C 149.103 184.643,150.880 185.091,152.200 185.269 C 157.245 185.949,159.838 186.351,160.895 186.616 C 162.620 187.050,162.626 186.364,160.996 175.400 C 160.776 173.922,160.021 170.599,159.550 169.040 C 159.358 168.402,159.200 167.483,159.200 166.996 C 159.200 166.509,158.750 164.693,158.200 162.960 C 157.650 161.228,157.207 159.628,157.215 159.405 C 157.256 158.305,169.722 150.800,171.507 150.800 C 171.944 150.800,172.533 150.522,172.816 150.181 C 173.098 149.841,174.245 149.145,175.365 148.636 C 176.484 148.126,178.300 147.300,179.400 146.799 C 188.599 142.611,191.701 142.211,196.883 144.542 C 200.219 146.043,202.405 145.940,204.494 144.183 C 206.026 142.893,208.892 142.505,210.659 143.348 C 211.412 143.706,212.285 144.000,212.600 144.000 C 213.957 144.000,217.238 145.280,223.400 148.212 C 225.380 149.154,227.650 150.209,228.445 150.555 C 229.240 150.902,230.117 151.459,230.394 151.793 C 230.671 152.127,231.140 152.400,231.437 152.400 C 232.655 152.400,242.131 158.395,242.548 159.430 C 242.643 159.666,242.289 161.351,241.760 163.175 C 241.232 164.999,240.792 166.875,240.782 167.345 C 240.773 167.815,240.482 168.920,240.137 169.800 C 239.792 170.680,239.363 172.660,239.183 174.200 C 238.704 178.311,238.066 183.180,237.775 184.952 C 237.350 187.544,240.241 187.781,245.400 185.578 C 245.840 185.390,247.190 185.155,248.400 185.056 C 251.493 184.804,256.865 183.695,257.352 183.208 C 257.576 182.984,258.253 182.800,258.856 182.800 C 259.459 182.800,260.064 182.620,260.200 182.400 C 260.336 182.180,261.249 182.000,262.229 182.000 C 263.209 182.000,264.323 181.835,264.705 181.634 C 266.311 180.786,268.423 179.975,269.668 179.728 C 270.401 179.582,271.540 179.134,272.200 178.733 C 272.860 178.331,273.800 178.002,274.288 178.001 C 274.777 178.001,276.127 177.571,277.288 177.047 C 278.450 176.523,280.840 175.609,282.600 175.017 C 284.360 174.425,287.398 173.144,289.351 172.170 C 291.304 171.197,293.104 170.394,293.351 170.387 C 293.974 170.370,302.402 166.024,303.391 165.211 C 303.616 165.025,305.060 164.223,306.600 163.428 C 310.423 161.454,312.093 160.489,312.368 160.095 C 312.496 159.912,313.426 159.285,314.435 158.702 C 315.445 158.119,317.708 156.507,319.465 155.121 C 321.222 153.734,323.096 152.346,323.630 152.035 C 325.469 150.964,328.593 148.188,332.897 143.800 C 341.950 134.571,343.600 132.840,343.600 132.573 C 343.600 132.191,346.625 127.781,348.384 125.600 C 349.181 124.610,350.260 122.990,350.779 122.000 C 351.299 121.010,352.236 119.490,352.862 118.621 C 353.488 117.753,354.000 116.779,354.000 116.456 C 354.000 116.134,354.519 115.044,355.153 114.035 C 356.631 111.683,360.800 101.684,360.800 100.490 C 360.800 100.159,361.138 99.148,361.551 98.244 C 363.733 93.465,363.050 90.356,359.293 87.973 L 357.443 86.800 200.022 86.816 L 42.600 86.833 41.098 87.916 M37.005 124.792 C 36.872 125.007,36.950 125.532,37.177 125.958 C 37.458 126.482,37.589 145.570,37.583 185.066 C 37.579 217.150,37.580 247.855,37.587 253.300 L 37.600 263.200 200.400 263.200 L 363.200 263.200 363.200 194.400 C 363.200 126.486,363.190 125.600,362.421 125.600 C 361.881 125.600,361.319 126.245,360.591 127.700 C 360.013 128.855,359.215 130.160,358.817 130.600 C 358.419 131.040,357.775 132.030,357.385 132.800 C 356.680 134.193,356.196 134.834,352.005 139.931 C 346.573 146.536,337.886 155.150,332.926 158.851 C 330.905 160.359,329.138 161.777,328.998 162.003 C 328.859 162.228,327.452 163.287,325.872 164.356 C 324.293 165.425,322.657 166.682,322.238 167.150 C 321.819 167.617,321.256 168.000,320.987 168.000 C 320.718 168.000,320.261 168.285,319.972 168.634 C 319.682 168.983,318.760 169.543,317.923 169.878 C 317.085 170.213,316.400 170.625,316.400 170.795 C 316.400 170.964,315.815 171.333,315.100 171.613 C 314.385 171.894,313.620 172.337,313.400 172.597 C 312.853 173.245,298.179 180.800,297.468 180.800 C 297.154 180.800,296.698 181.040,296.455 181.334 C 296.211 181.628,295.244 182.112,294.306 182.410 C 293.368 182.708,292.245 183.188,291.811 183.476 C 291.377 183.764,290.634 184.000,290.160 184.000 C 289.686 184.000,289.074 184.270,288.800 184.600 C 288.526 184.930,287.975 185.200,287.575 185.200 C 287.175 185.200,286.736 185.380,286.600 185.600 C 286.464 185.820,286.009 186.000,285.589 186.000 C 285.168 186.000,284.183 186.360,283.400 186.800 C 282.617 187.240,281.424 187.600,280.750 187.600 C 280.075 187.600,279.046 187.936,278.462 188.346 C 277.878 188.757,276.860 189.197,276.200 189.324 C 275.540 189.451,273.110 190.173,270.800 190.927 C 264.809 192.883,260.902 194.003,258.600 194.422 C 257.500 194.623,255.790 194.983,254.800 195.223 C 253.810 195.463,251.830 195.819,250.400 196.013 C 248.970 196.207,247.080 196.535,246.200 196.742 C 245.320 196.949,243.970 197.233,243.200 197.374 C 242.430 197.516,240.831 197.839,239.646 198.092 L 237.492 198.554 237.758 201.777 C 237.994 204.654,238.256 206.854,238.996 212.200 C 239.376 214.948,240.072 218.113,240.798 220.400 C 243.269 228.183,243.223 228.800,240.176 228.800 C 239.853 228.800,239.277 228.968,238.895 229.174 C 238.513 229.380,235.949 230.612,233.198 231.910 C 225.667 235.466,212.276 244.374,209.800 247.476 C 209.580 247.752,208.527 248.594,207.460 249.347 C 206.393 250.100,204.354 251.838,202.928 253.209 C 199.846 256.172,199.893 256.181,195.693 251.935 C 194.212 250.439,192.820 249.209,192.600 249.203 C 192.380 249.197,190.870 247.934,189.246 246.396 C 187.621 244.858,186.117 243.600,185.903 243.600 C 185.690 243.600,185.161 243.150,184.729 242.600 C 184.296 242.050,183.713 241.600,183.433 241.600 C 183.153 241.600,182.598 241.240,182.200 240.800 C 181.802 240.360,181.307 240.000,181.099 240.000 C 180.892 240.000,179.165 238.972,177.261 237.716 C 173.550 235.266,173.173 235.043,169.200 232.924 C 167.770 232.162,165.880 231.117,165.000 230.601 C 164.120 230.086,163.130 229.648,162.800 229.628 C 161.723 229.563,158.127 227.708,157.892 227.096 C 157.766 226.767,158.002 225.441,158.416 224.149 C 160.828 216.620,161.612 212.559,162.386 203.600 C 162.883 197.840,162.972 197.918,154.600 196.755 C 148.237 195.871,141.380 194.321,133.600 192.007 C 131.510 191.386,129.080 190.700,128.200 190.483 C 127.320 190.265,126.015 189.888,125.300 189.644 C 124.585 189.400,123.460 189.020,122.800 188.800 C 120.010 187.870,118.913 187.463,117.400 186.796 C 116.520 186.408,115.080 185.876,114.200 185.613 C 112.709 185.169,111.311 184.572,107.462 182.734 C 106.616 182.330,105.741 182.000,105.516 182.000 C 105.113 182.000,97.159 178.326,96.000 177.604 C 95.670 177.398,94.590 176.824,93.600 176.327 C 92.610 175.830,90.852 174.833,89.692 174.112 C 88.533 173.390,87.443 172.800,87.270 172.800 C 87.097 172.800,86.335 172.337,85.578 171.772 C 84.820 171.207,83.658 170.514,82.995 170.232 C 82.333 169.951,81.013 168.973,80.063 168.060 C 79.112 167.147,78.118 166.400,77.852 166.400 C 77.587 166.400,76.747 165.867,75.985 165.216 C 75.223 164.565,74.394 164.025,74.143 164.016 C 73.891 164.007,73.588 163.745,73.468 163.434 C 73.269 162.915,72.801 162.599,70.051 161.133 C 69.529 160.855,67.549 159.136,65.652 157.313 C 63.754 155.491,62.062 154.000,61.892 154.000 C 61.467 154.000,52.400 144.816,52.400 144.385 C 52.400 144.194,51.500 143.138,50.400 142.038 C 49.300 140.938,48.400 139.766,48.400 139.433 C 48.400 139.100,48.063 138.648,47.652 138.428 C 47.241 138.208,46.604 137.394,46.236 136.619 C 45.868 135.845,45.210 135.019,44.773 134.785 C 44.335 134.551,43.693 133.649,43.345 132.780 C 42.998 131.911,42.508 131.196,42.257 131.191 C 42.005 131.187,41.530 130.650,41.200 129.998 C 38.483 124.632,37.702 123.664,37.005 124.792 M190.200 148.785 C 189.760 148.966,188.590 149.348,187.600 149.633 C 183.568 150.792,172.908 155.802,167.400 159.124 C 163.642 161.391,163.651 161.356,165.135 168.200 C 166.495 174.468,167.253 179.375,168.286 188.600 L 168.600 191.400 172.200 191.400 L 175.800 191.400 175.923 189.010 C 176.082 185.902,175.750 186.013,184.892 186.006 L 192.784 186.000 192.892 177.500 L 193.000 169.000 200.100 168.891 L 207.200 168.782 207.200 177.391 L 207.200 186.000 215.100 186.006 C 224.251 186.013,223.918 185.902,224.077 189.010 L 224.200 191.400 227.794 191.400 L 231.389 191.400 231.649 189.400 C 231.793 188.300,232.121 185.690,232.378 183.600 C 233.168 177.191,234.188 170.812,234.808 168.400 C 235.878 164.239,236.353 161.848,236.170 161.552 C 235.091 159.806,219.162 151.760,212.864 149.780 C 211.839 149.457,210.402 148.999,209.671 148.760 C 208.061 148.236,206.825 148.660,203.522 150.874 C 200.779 152.712,199.784 152.767,197.477 151.210 C 194.128 148.950,191.733 148.151,190.200 148.785 M168.613 195.979 C 168.474 196.204,168.191 198.685,167.983 201.494 C 167.370 209.807,166.553 214.842,164.668 221.929 C 164.159 223.846,164.167 224.094,164.751 224.425 C 165.108 224.627,167.830 226.024,170.800 227.528 C 175.327 229.821,180.101 232.583,181.800 233.892 C 182.020 234.061,183.820 235.361,185.800 236.781 C 189.402 239.363,198.537 246.851,199.001 247.602 C 199.539 248.472,200.656 247.863,204.348 244.687 C 206.467 242.864,208.904 240.839,209.766 240.187 C 210.627 239.534,212.247 238.293,213.366 237.428 C 218.398 233.539,224.859 229.602,231.469 226.398 C 236.306 224.053,236.081 224.333,235.331 221.594 C 233.832 216.113,233.134 212.215,232.397 205.200 C 232.131 202.670,231.797 199.520,231.656 198.200 L 231.399 195.800 227.799 195.800 L 224.200 195.800 224.000 198.200 L 223.800 200.600 215.508 200.708 L 207.216 200.816 207.108 209.508 L 207.000 218.200 200.230 218.310 C 195.081 218.394,193.382 218.298,193.136 217.910 C 192.958 217.629,192.809 213.669,192.806 209.108 L 192.800 200.816 184.500 200.708 L 176.200 200.600 176.000 198.200 L 175.800 195.800 172.333 195.685 C 170.275 195.617,168.763 195.736,168.613 195.979 M37.600 283.722 L 37.600 293.043 38.752 294.861 C 39.386 295.860,40.449 297.065,41.114 297.539 L 42.323 298.400 199.900 298.400 C 337.941 298.400,357.624 298.327,358.659 297.810 C 362.604 295.843,363.200 293.948,363.200 283.388 L 363.200 274.400 200.400 274.400 L 37.600 274.400 37.600 283.722 " stroke="none" fill="#cc343c" fill-rule="evenodd"></path></g></svg>