<svg width="631" height="631" viewBox="0 0 631 631" fill="none" xmlns="http://www.w3.org/2000/svg">
<g clip-path="url(#clip0_1_54)">
<mask id="mask0_1_54" style="mask-type:luminance" maskUnits="userSpaceOnUse" x="0" y="35" width="631" height="631">
<path d="M631 35H0V666H631V35Z" fill="white"/>
</mask>
<g mask="url(#mask0_1_54)">
<path d="M166.341 107.923C169.159 103.043 174.367 100.036 180.003 100.036H450.997C456.631 100.036 461.839 103.043 464.658 107.923L600.155 342.61C602.97 347.492 602.97 353.505 600.155 358.385L464.658 593.072C461.839 597.952 456.631 600.96 450.997 600.96H180.003C174.367 600.96 169.159 597.952 166.341 593.072L30.8449 358.385C28.0269 353.505 28.0269 347.492 30.8449 342.61L166.341 107.923Z" fill="url(#paint0_linear_1_54)"/>
</g>
<g clip-path="url(#clip1_1_54)">
<path d="M244.543 317.494C246.847 320.945 250.699 322.949 254.745 322.949C255.54 322.949 256.343 322.872 257.142 322.713C262.01 321.745 265.816 317.938 266.784 313.07L280.455 244.339C281.089 241.147 280.431 237.833 278.622 235.127C276.814 232.42 274.004 230.543 270.813 229.908L202.083 216.237C197.211 215.267 192.241 217.328 189.484 221.455C186.726 225.582 186.726 230.965 189.484 235.092L212.785 269.964C194.658 293.016 184.772 321.438 184.772 351.002C184.772 403.185 215.675 450.406 263.501 471.304C265.1 472.003 266.768 472.334 268.408 472.334C273.137 472.334 277.645 469.584 279.661 464.973C282.374 458.762 279.539 451.527 273.329 448.813C234.444 431.822 209.318 393.428 209.318 351.003C209.318 329.71 215.629 309.149 227.31 291.705L244.543 317.494Z" fill="#FFE418"/>
<path d="M419.223 432.034C437.345 408.983 447.229 380.563 447.229 351.002C447.229 298.82 416.326 251.598 368.5 230.7C362.29 227.987 355.054 230.821 352.34 237.032C349.626 243.242 352.46 250.477 358.672 253.192C397.556 270.184 422.683 308.577 422.683 351.003C422.683 372.291 416.374 392.85 404.695 410.293L387.465 384.508C384.708 380.381 379.737 378.319 374.867 379.289C369.998 380.258 366.192 384.063 365.224 388.931L351.552 457.662C350.917 460.855 351.576 464.169 353.384 466.875C355.193 469.581 358.002 471.458 361.195 472.093L429.927 485.763C430.726 485.922 431.528 485.999 432.323 485.999C432.445 485.999 432.568 485.998 432.691 485.995C439.305 485.807 444.61 480.387 444.61 473.727C444.61 470.991 443.714 468.464 442.2 466.422L419.223 432.034Z" fill="#FFE418"/>
</g>
</g>
<defs>
<linearGradient id="paint0_linear_1_54" x1="315.499" y1="100.036" x2="315.499" y2="600.96" gradientUnits="userSpaceOnUse">
<stop offset="0.0839937" stop-color="#43C6F9"/>
<stop offset="1" stop-color="#ED2D53"/>
</linearGradient>
<clipPath id="clip0_1_54">
<rect width="631" height="631" fill="white"/>
</clipPath>
<clipPath id="clip1_1_54">
<rect width="270" height="270" fill="white" transform="translate(181 216)"/>
</clipPath>
</defs>
</svg>
