<svg id="svg" xmlns="http://www.w3.org/2000/svg" xmlns:xlink="http://www.w3.org/1999/xlink" viewBox="0, 0, 400,400"><g id="svgg"><path id="path0" d="M108.404 33.620 C 88.385 36.990,71.608 52.869,67.571 72.266 C 65.866 80.461,65.866 319.539,67.571 327.734 C 71.034 344.371,84.244 358.946,101.004 364.623 L 107.422 366.797 151.953 366.797 L 196.484 366.797 199.965 364.844 C 205.851 361.541,208.203 357.303,208.203 350.000 C 208.203 342.697,205.851 338.459,199.965 335.156 L 196.484 333.203 153.777 332.813 L 111.070 332.422 107.726 330.071 C 105.702 328.648,103.594 326.189,102.386 323.842 L 100.391 319.964 100.391 200.000 L 100.391 80.036 102.386 76.158 C 103.595 73.810,105.702 71.352,107.727 69.929 L 111.071 67.578 163.739 67.367 L 216.406 67.155 216.406 94.433 C 216.406 132.223,218.963 139.161,235.841 147.158 L 241.016 149.609 270.486 149.840 L 299.956 150.070 300.173 186.626 L 300.391 223.182 302.627 226.409 C 309.959 236.986,326.699 235.521,332.113 223.828 C 334.357 218.981,334.344 130.976,332.099 126.172 C 329.597 120.821,242.659 34.875,238.581 33.722 C 234.839 32.664,114.644 32.570,108.404 33.620 M262.891 103.906 L 275.372 116.406 262.686 116.406 L 250.000 116.406 250.000 103.906 C 250.000 97.031,250.092 91.406,250.204 91.406 C 250.317 91.406,256.026 97.031,262.891 103.906 M292.578 251.294 C 283.758 255.929,280.534 266.049,285.086 274.807 C 285.923 276.417,291.560 282.656,297.612 288.672 L 308.616 299.609 267.717 300.000 L 226.818 300.391 223.591 302.627 C 215.341 308.346,214.035 321.055,220.940 328.419 C 225.836 333.640,225.063 333.558,269.109 333.577 L 308.921 333.594 296.768 345.898 C 286.240 356.558,284.483 358.695,283.621 361.884 C 280.784 372.381,287.819 382.674,298.351 383.436 C 306.849 384.051,306.467 384.340,336.194 354.786 C 377.147 314.071,377.065 319.599,337.306 279.955 C 322.159 264.852,308.641 251.934,307.265 251.248 C 304.009 249.622,295.709 249.649,292.578 251.294 " stroke="none" fill="#fff" fill-rule="evenodd"></path></g></svg>