    <svg 
   xmlns:dc="http://purl.org/dc/elements/1.1/"
   xmlns:cc="http://creativecommons.org/ns#"
   xmlns:rdf="http://www.w3.org/1999/02/22-rdf-syntax-ns#"
   xmlns:svg="http://www.w3.org/2000/svg"
   xmlns="http://www.w3.org/2000/svg"
   xmlns:sodipodi="http://sodipodi.sourceforge.net/DTD/sodipodi-0.dtd"
   xmlns:inkscape="http://www.inkscape.org/namespaces/inkscape"
   viewBox="0 0 30 30"
   version="1.1"
   id="svg822"
   inkscape:version="0.92.4 (f8dce91, 2019-08-02)"
   sodipodi:docname="addons.svg">
  <defs
     id="defs816" />

  <g
     inkscape:label="Layer 1"
     inkscape:groupmode="layer"
     id="layer1"
     transform="translate(0,-289.0625)">
    <path
       style="opacity:1;fill:#fff;fill-opacity:1;stroke:none;stroke-width:0.49999991;stroke-miterlimit:4;stroke-dasharray:none;stroke-opacity:1"
       d="m 12,295.07422 a 2.5486216,2.1007805 0 0 0 -2.548828,2.09961 2.5486216,2.1007805 0 0 0 0.976562,1.65039 c 0.130889,0.19885 0.208985,0.42588 0.208985,0.65039 0,0.21505 -0.07725,0.41315 -0.205078,0.58789 H 7 c -1.108,0 -2,0.892 -2,2 v 3.43945 c 0.172404,0.12339 0.367129,0.19727 0.578125,0.19727 0.22451,0 0.451541,-0.0781 0.650391,-0.20899 a 2.1007805,2.5486216 0 0 1 1.65039,-0.97656 2.1007805,2.5486216 0 0 1 2.09961,2.54883 2.1007805,2.5486216 0 0 1 -2.09961,2.54883 2.1007805,2.5486216 0 0 1 -1.578125,-0.86914 c -0.21142,-0.15451 -0.459495,-0.25196 -0.697265,-0.25196 -0.222355,0 -0.42454,0.0862 -0.603516,0.22266 v 3.34961 c 0,1.108 0.892,2 2,2 h 10 c 1.108,0 2,-0.892 2,-2 v -3.34961 c 0.178976,-0.13648 0.381161,-0.22266 0.603516,-0.22266 0.23777,0 0.485845,0.0974 0.697265,0.25196 a 2.1007805,2.5486216 0 0 0 1.578125,0.86914 2.1007805,2.5486216 0 0 0 2.09961,-2.54883 2.1007805,2.5486216 0 0 0 -2.09961,-2.54883 2.1007805,2.5486216 0 0 0 -1.65039,0.97656 c -0.19885,0.13089 -0.425881,0.20899 -0.650391,0.20899 -0.210996,0 -0.405721,-0.0739 -0.578125,-0.19727 v -3.43945 c 0,-1.108 -0.892,-2 -2,-2 h -3.341797 c -0.141157,-0.18122 -0.230469,-0.38682 -0.230469,-0.61328 0,-0.23777 0.09745,-0.4878 0.251954,-0.69922 a 2.5486216,2.1007805 0 0 0 0.86914,-1.57617 A 2.5486216,2.1007805 0 0 0 12,295.07422 Z"
       id="rect926"
       inkscape:connector-curvature="0" />
  </g>
</svg>